<svg width="200" height="200" viewBox="0 0 200 200" fill="none" xmlns="http://www.w3.org/2000/svg">
<path d="M190.883 124.482L196.606 118.761C200.206 115.159 200.206 109.298 196.606 105.695C194.86 103.951 192.54 102.989 190.072 102.989C188.219 102.989 186.449 103.531 184.945 104.54L183.739 100.493L189.933 94.298C193.535 90.6957 193.535 84.8347 189.933 81.2336C186.617 77.9164 181.39 77.6617 177.769 80.4523L170.429 55.8125C173.25 53.1003 176.045 50.3618 178.814 47.5973C186.439 39.9707 192.638 31.9004 196.271 24.8692C202.41 12.9856 199.84 6.63323 196.604 3.39691C193.369 0.160579 187.017 -2.40778 175.132 3.73128C168.102 7.36292 160.03 13.5625 152.405 21.1887C149.64 23.957 146.902 26.7515 144.19 29.5719L119.549 22.2324C122.34 18.6129 122.085 13.3856 118.769 10.0684C115.166 6.46682 109.305 6.46565 105.705 10.0684L99.5092 16.2633L95.4612 15.0578C96.4698 13.5516 97.0115 11.7817 97.0115 9.92932C97.0148 8.71569 96.7774 7.51346 96.313 6.39218C95.8486 5.27091 95.1665 4.25285 94.3061 3.39691C90.7049 -0.205436 84.8424 -0.205436 81.2416 3.39691L75.5209 9.1176L46.3631 0.432064C45.8537 0.280483 45.3128 0.269395 44.7975 0.399972C44.2823 0.530549 43.812 0.797938 43.4362 1.17386L35.9307 8.67971C34.6702 9.93831 34.8366 12.0914 36.2737 13.143L109.842 66.9926C93.2549 85.6953 77.276 104.421 65.9948 117.8L44.3549 109.476C43.8226 109.271 43.2424 109.226 42.6845 109.344C42.1266 109.462 41.615 109.74 41.2116 110.143L32.3159 119.039C31.7634 119.592 31.4531 120.341 31.4531 121.123C31.4531 121.905 31.7634 122.654 32.3159 123.207L76.7936 167.685C77.9288 168.822 79.8272 168.822 80.9639 167.685L89.8584 158.791C90.2618 158.387 90.5394 157.875 90.6577 157.317C90.776 156.759 90.7298 156.178 90.5248 155.646L82.203 134.008C95.5819 122.727 114.306 106.748 133.01 90.1586L138.854 98.1449C139.892 99.5625 141.996 99.7457 143.269 98.5371C144.329 97.53 144.476 95.841 143.613 94.6629L137.435 86.2215C147.216 77.4922 156.875 68.6848 165.638 60.3855L193.417 153.639L189.585 157.469L151.406 105.309C150.944 104.678 150.251 104.256 149.478 104.137C148.706 104.017 147.917 104.209 147.286 104.671C146.973 104.9 146.709 105.188 146.508 105.518C146.306 105.849 146.172 106.217 146.113 106.599C146.054 106.982 146.071 107.373 146.162 107.749C146.254 108.125 146.419 108.48 146.648 108.792L186.86 163.729C187.911 165.166 190.064 165.332 191.323 164.072L198.829 156.566C199.205 156.191 199.472 155.72 199.603 155.205C199.733 154.69 199.722 154.149 199.57 153.639L190.883 124.482ZM109.874 14.2383C111.162 12.9504 113.312 12.9504 114.6 14.2383C115.903 15.5414 115.903 17.661 114.6 18.9641L113.218 20.3465L105.935 18.1766L109.874 14.2383ZM85.4116 7.56721C86.7131 6.26409 88.8342 6.26409 90.1373 7.56721C91.4405 8.87034 91.4405 10.9899 90.1373 12.293L89.228 13.2008L81.9467 11.0328L85.4116 7.56721ZM42.5315 10.416L46.3631 6.58597L139.617 34.3633C131.318 43.1277 122.51 52.7867 113.78 62.5676L42.5315 10.416ZM44.0268 115.668L61.9788 122.573C58.6361 126.552 55.3051 130.54 51.9858 134.539L38.5702 121.123L44.0268 115.668ZM56.1745 138.727C66.4526 126.327 120.781 61.1516 156.576 25.3574C163.677 18.2543 171.429 12.2821 177.839 8.97073C182.651 6.48401 189.09 4.22269 192.435 7.56721C195.78 10.9117 193.517 17.3512 191.031 22.1637C187.72 28.5738 181.746 36.3238 174.644 43.427C138.853 79.2179 73.676 133.548 61.2752 143.828L56.1745 138.727ZM84.3346 155.976L78.8795 161.431L65.4639 148.015C69.4625 144.697 73.4512 141.366 77.4299 138.024L84.3346 155.976ZM187.71 109.865C189.013 108.562 191.132 108.562 192.435 109.865C193.738 111.168 193.738 113.288 192.435 114.591L188.97 118.056L186.8 110.775L187.71 109.865ZM181.038 85.4023C182.34 84.0992 184.461 84.1008 185.764 85.4023C187.052 86.6902 187.052 88.8398 185.764 90.1281L181.824 94.0679L179.654 86.7847L181.038 85.4023ZM176.987 169.806L151.827 194.966C150.754 196.041 150.683 197.814 151.67 198.967C152.773 200.255 154.798 200.336 155.997 199.137L181.158 173.976C181.432 173.703 181.649 173.378 181.797 173.02C181.945 172.662 182.022 172.279 182.022 171.891C182.022 171.504 181.945 171.121 181.797 170.763C181.649 170.405 181.432 170.08 181.158 169.806C180.604 169.254 179.854 168.943 179.072 168.943C178.291 168.943 177.541 169.254 176.987 169.806Z" fill="#0082FF"/>
<path d="M168.575 161.397C168.849 161.123 169.066 160.798 169.215 160.44C169.363 160.083 169.439 159.699 169.439 159.312C169.439 158.925 169.363 158.542 169.215 158.184C169.066 157.826 168.849 157.501 168.575 157.228C168.301 156.954 167.976 156.737 167.619 156.588C167.261 156.44 166.878 156.364 166.491 156.364C166.103 156.364 165.72 156.44 165.363 156.588C165.005 156.737 164.68 156.954 164.406 157.228L148.681 172.952C147.608 174.026 147.536 175.799 148.524 176.953C149.627 178.241 151.652 178.322 152.851 177.122L168.575 161.397ZM159.14 145.672C159.414 145.399 159.632 145.074 159.78 144.716C159.928 144.358 160.004 143.974 160.004 143.587C160.004 143.2 159.928 142.816 159.78 142.459C159.632 142.101 159.414 141.776 159.14 141.502C158.867 141.228 158.542 141.011 158.184 140.863C157.826 140.714 157.443 140.638 157.055 140.638C156.668 140.638 156.285 140.714 155.927 140.863C155.569 141.011 155.244 141.228 154.971 141.502L143.963 152.51C142.89 153.582 142.818 155.357 143.807 156.511C144.909 157.799 146.933 157.879 148.133 156.68L159.14 145.672ZM30.1948 20.4178C29.6416 19.8651 28.8916 19.5547 28.1097 19.5547C27.3277 19.5547 26.5777 19.8651 26.0245 20.4178L0.864387 45.5795C0.590373 45.853 0.372986 46.1779 0.224665 46.5356C0.0763445 46.8932 0 47.2766 0 47.6638C0 48.051 0.0763445 48.4344 0.224665 48.7921C0.372986 49.1497 0.590373 49.4746 0.864387 49.7482C1.99954 50.8834 3.89798 50.8834 5.0347 49.7482L30.1948 24.5881C30.7474 24.0348 31.0577 23.2848 31.0577 22.5029C31.0577 21.721 30.7474 20.971 30.1948 20.4178ZM42.7741 32.9986C42.5006 32.7246 42.1757 32.5072 41.818 32.3589C41.4603 32.2106 41.0769 32.1342 40.6898 32.1342C40.3026 32.1342 39.9192 32.2106 39.5615 32.3589C39.2038 32.5072 38.8789 32.7246 38.6054 32.9986L22.8796 48.724C21.8054 49.797 21.7351 51.5701 22.7226 52.7236C23.8257 54.0115 25.8491 54.0923 27.0484 52.8927L42.7741 37.1685C43.048 36.8948 43.2652 36.5697 43.4135 36.212C43.5617 35.8542 43.638 35.4708 43.638 35.0836C43.638 34.6963 43.5617 34.3129 43.4135 33.9551C43.2652 33.5974 43.048 33.2724 42.7741 32.9986ZM43.3218 57.6107C44.4585 58.7462 46.3554 58.7462 47.4921 57.6107L58.4999 46.6029C59.0523 46.0496 59.3626 45.2998 59.3626 44.5179C59.3626 43.7361 59.0523 42.9862 58.4999 42.433C57.9466 41.8804 57.1967 41.5701 56.4147 41.5701C55.6328 41.5701 54.8829 41.8804 54.3296 42.433L43.3218 53.4408C42.7694 53.994 42.4591 54.7439 42.4591 55.5257C42.4591 56.3076 42.7694 57.0574 43.3218 57.6107Z" fill="#0082FF"/>
</svg>
