<svg width="120" height="128" viewBox="0 0 120 128" fill="none" xmlns="http://www.w3.org/2000/svg">
<path d="M79.5104 58.3986V55.995C79.5108 55.5957 79.6696 55.2128 79.9519 54.9305C80.2343 54.6481 80.6172 54.4893 81.0165 54.4889H95.7247C96.124 54.4893 96.5069 54.6481 96.7892 54.9305C97.0716 55.2128 97.2304 55.5957 97.2308 55.995V58.3986H100.243V55.995C100.243 53.5037 98.2165 51.4766 95.7247 51.4766H81.0165C78.5247 51.4766 76.498 53.5037 76.498 55.995V58.3986H79.5104ZM112.307 127.177H64.4345C60.1863 127.177 56.7422 123.733 56.7422 119.485V100.867C56.7422 100.187 57.0123 99.535 57.4932 99.0542C57.9741 98.5733 58.6262 98.3031 59.3063 98.3031H117.435C118.115 98.3031 118.768 98.5733 119.249 99.0542C119.729 99.535 120 100.187 120 100.867V119.485C120 123.733 116.555 127.177 112.307 127.177Z" fill="#414042"/>
<path d="M113.979 119.488V61.4141H62.7617V119.488C62.7617 123.737 66.2058 127.181 70.454 127.181H106.287C110.535 127.181 113.979 123.737 113.979 119.488Z" fill="#377DE2"/>
<path d="M111.414 61.4141V116.924C111.414 121.172 107.97 124.617 103.722 124.617H67.8891C66.4224 124.617 65.0568 124.199 63.8906 123.487C65.2414 125.699 67.6711 127.181 70.4532 127.181H106.286C110.534 127.181 113.978 123.737 113.978 119.488V61.4141H111.414Z" fill="#2266D3"/>
<path d="M104.105 120.297H72.6344C71.9544 120.297 71.3022 120.027 70.8213 119.546C70.3405 119.065 70.0703 118.413 70.0703 117.733V105.24C70.0703 104.56 70.3405 103.908 70.8213 103.427C71.3022 102.946 71.9544 102.676 72.6344 102.676H104.105C104.785 102.676 105.437 102.946 105.918 103.427C106.399 103.908 106.669 104.56 106.669 105.24V117.733C106.669 118.413 106.399 119.065 105.918 119.546C105.437 120.027 104.785 120.297 104.105 120.297Z" fill="#58595B"/>
<path d="M110.958 58.3984H65.7805C62.9482 58.3984 60.6523 60.6943 60.6523 63.5266V87.7363C60.6523 88.4164 60.9225 89.0686 61.4034 89.5494C61.8842 90.0303 62.5364 90.3004 63.2164 90.3004H113.523C114.203 90.3004 114.855 90.0303 115.336 89.5494C115.816 89.0686 116.087 88.4164 116.087 87.7363V63.5266C116.087 60.6948 113.791 58.3984 110.958 58.3984Z" fill="#5E9CF7"/>
<path d="M113.066 58.8555C113.367 59.5175 113.522 60.2361 113.523 60.9632V85.1729C113.523 85.8529 113.252 86.5051 112.771 86.986C112.291 87.4668 111.638 87.737 110.958 87.737H60.6523C60.6523 88.417 60.9225 89.0692 61.4034 89.55C61.8842 90.0309 62.5364 90.3011 63.2164 90.3011H113.523C114.203 90.3011 114.855 90.0309 115.336 89.55C115.816 89.0692 116.087 88.417 116.087 87.737V63.5273C116.087 61.4467 114.846 59.6596 113.066 58.8555Z" fill="#478CF7"/>
<path d="M88.3694 95.4002C87.5752 95.4001 86.8137 95.0845 86.2522 94.523C85.6907 93.9615 85.3751 93.1999 85.375 92.4058V86.6494C85.375 86.3166 85.6447 86.0469 85.9776 86.0469H90.7617C91.0945 86.0469 91.3642 86.3166 91.3642 86.6494V92.4058C91.3641 93.2 91.0485 93.9617 90.4869 94.5232C89.9252 95.0847 89.1636 95.4002 88.3694 95.4002Z" fill="#2266D3"/>
<path d="M95.0704 74.4478H81.6735C80.9934 74.4478 80.3412 74.1777 79.8604 73.6968C79.3795 73.2159 79.1094 72.5638 79.1094 71.8837V71.4391C79.1094 70.7591 79.3795 70.1069 79.8604 69.626C80.3412 69.1452 80.9934 68.875 81.6735 68.875H95.0704C95.7504 68.875 96.4026 69.1452 96.8835 69.626C97.3643 70.1069 97.6345 70.7591 97.6345 71.4391V71.8837C97.6345 72.5638 97.3643 73.2159 96.8835 73.6968C96.4026 74.1777 95.7504 74.4478 95.0704 74.4478Z" fill="#D1D3D4"/>
<path d="M15.7549 30.3647V6.92778C15.7556 6.40536 15.9635 5.90453 16.3329 5.53517C16.7024 5.16581 17.2033 4.95807 17.7257 4.95753H48.6205C49.1428 4.95821 49.6436 5.166 50.0129 5.53535C50.3823 5.9047 50.5901 6.40545 50.5908 6.92778V30.3647H52.642V6.92778C52.642 4.71035 50.8379 2.90625 48.6205 2.90625H17.7252C15.5077 2.90625 13.7031 4.71035 13.7031 6.92778V30.3647H15.7549Z" fill="#414042"/>
<path d="M47.0856 7.86409H19.26C18.988 7.86409 18.7271 7.75603 18.5348 7.56369C18.3424 7.37134 18.2344 7.11047 18.2344 6.83845V1.02564C18.2344 0.753623 18.3424 0.492747 18.5348 0.300403C18.7271 0.108058 18.988 0 19.26 0H47.0856C47.3576 0 47.6185 0.108058 47.8108 0.300403C48.0032 0.492747 48.1112 0.753623 48.1112 1.02564V6.83845C48.1112 7.11047 48.0032 7.37134 47.8108 7.56369C47.6185 7.75603 47.3576 7.86409 47.0856 7.86409Z" fill="#EF7816"/>
<path d="M23.2466 30.3662V28.2442C23.2473 27.7219 23.4551 27.2211 23.8244 26.8518C24.1938 26.4824 24.6945 26.2746 25.2168 26.2739H41.1322C41.6545 26.2746 42.1553 26.4824 42.5246 26.8518C42.894 27.2211 43.1018 27.7219 43.1025 28.2442V30.3662H45.1537V28.2442C45.1537 26.0268 43.3496 24.2227 41.1322 24.2227H25.2168C22.9994 24.2227 21.1953 26.0268 21.1953 28.2442V30.3662H23.2466Z" fill="#414042"/>
<path d="M61.2209 119.767H5.1282C2.29589 119.767 0 117.471 0 114.639V35.4915C0 32.6592 2.29589 30.3633 5.1282 30.3633H61.2204C64.0527 30.3633 66.3486 32.6592 66.3486 35.4915V114.639C66.3491 117.471 64.0532 119.767 61.2209 119.767Z" fill="#A54AF4"/>
<path d="M3.07642 103.078C2.8044 103.078 2.54353 102.97 2.35118 102.778C2.15884 102.585 2.05078 102.324 2.05078 102.052V68.7191C2.05078 68.4471 2.15884 68.1862 2.35118 67.9939C2.54353 67.8016 2.8044 67.6935 3.07642 67.6935C3.34844 67.6935 3.60931 67.8016 3.80166 67.9939C3.994 68.1862 4.10206 68.4471 4.10206 68.7191V102.052C4.10206 102.324 3.994 102.585 3.80166 102.778C3.60931 102.97 3.34844 103.078 3.07642 103.078ZM3.07642 65.6422C2.8044 65.6422 2.54353 65.5342 2.35118 65.3418C2.15884 65.1495 2.05078 64.8886 2.05078 64.6166V64.1038C2.05078 63.8317 2.15884 63.5709 2.35118 63.3785C2.54353 63.1862 2.8044 63.0781 3.07642 63.0781C3.34844 63.0781 3.60931 63.1862 3.80166 63.3785C3.994 63.5709 4.10206 63.8317 4.10206 64.1038V64.6166C4.10206 64.8886 3.994 65.1495 3.80166 65.3418C3.60931 65.5342 3.34844 65.6422 3.07642 65.6422Z" fill="#B171F4"/>
<path d="M43.8813 47.9725H22.4695C20.3872 47.9724 18.3542 47.3386 16.6409 46.1551C14.9275 44.9717 13.615 43.2948 12.8777 41.3474L8.71875 30.3633H57.6315L53.473 41.3474C52.7358 43.2948 51.4232 44.9717 49.7099 46.1551C47.9965 47.3386 45.9636 47.9724 43.8813 47.9725Z" fill="#FFC91D"/>
<path d="M45.2258 42.9312H21.1233C20.8513 42.9312 20.5904 42.8231 20.3981 42.6308C20.2057 42.4384 20.0977 42.1775 20.0977 41.9055V36.4358C20.0977 36.1638 20.2057 35.9029 20.3981 35.7106C20.5904 35.5182 20.8513 35.4102 21.1233 35.4102H45.2258C45.4978 35.4102 45.7587 35.5182 45.9511 35.7106C46.1434 35.9029 46.2515 36.1638 46.2515 36.4358V41.906C46.2513 42.178 46.1432 42.4387 45.9509 42.6309C45.7585 42.8232 45.4977 42.9312 45.2258 42.9312Z" fill="#F79219"/>
<path d="M17.5339 30.3656H11.957V26.9241C11.957 26.6521 12.0651 26.3912 12.2574 26.1988C12.4498 26.0065 12.7107 25.8984 12.9827 25.8984H16.5083C16.7803 25.8984 17.0412 26.0065 17.2335 26.1988C17.4259 26.3912 17.5339 26.6521 17.5339 26.9241V30.3656ZM54.4067 30.3656H48.8298V26.9241C48.8298 26.6521 48.9378 26.3912 49.1302 26.1988C49.3225 26.0065 49.5834 25.8984 49.8554 25.8984H53.3811C53.6531 25.8984 53.9139 26.0065 54.1063 26.1988C54.2986 26.3912 54.4067 26.6521 54.4067 26.9241V30.3656Z" fill="#FFA91A"/>
<path d="M61.2209 30.3633V109.51C61.2209 112.343 58.925 114.639 56.0927 114.639H0C0 117.471 2.29589 119.767 5.1282 119.767H61.2204C64.0527 119.767 66.3486 117.471 66.3486 114.639V35.4915C66.3491 32.6597 64.0532 30.3633 61.2209 30.3633Z" fill="#893ADD"/>
<path d="M63.3287 30.8203C63.6293 31.4823 63.7849 32.2009 63.7851 32.928V112.075C63.7851 114.907 61.4892 117.203 58.6569 117.203H2.56472C1.83754 117.204 1.11876 117.048 0.457031 116.746C1.26165 118.526 3.04831 119.767 5.12882 119.767H61.221C64.0533 119.767 66.3492 117.471 66.3492 114.639V35.4916C66.3497 33.4116 65.1087 31.6244 63.3287 30.8203Z" fill="#6C2BC1"/>
<path d="M19.5707 119.77H10.082V124.616C10.082 125.296 10.3522 125.948 10.833 126.429C11.3139 126.91 11.9661 127.18 12.6461 127.18H17.0066C17.3434 127.18 17.6768 127.114 17.9879 126.985C18.299 126.856 18.5816 126.667 18.8197 126.429C19.0578 126.191 19.2467 125.909 19.3756 125.597C19.5044 125.286 19.5707 124.953 19.5707 124.616V119.77ZM56.2702 119.77H46.7815V124.616C46.7815 125.296 47.0516 125.948 47.5325 126.429C48.0133 126.91 48.6655 127.18 49.3456 127.18H53.7061C54.3861 127.18 55.0383 126.91 55.5191 126.429C56 125.948 56.2702 125.296 56.2702 124.616V119.77Z" fill="#414042"/>
<path d="M56.0946 63.1846H10.2583C9.71428 63.1846 9.19253 62.9685 8.80784 62.5838C8.42315 62.1991 8.20703 61.6773 8.20703 61.1333C8.20703 60.5893 8.42315 60.0675 8.80784 59.6828C9.19253 59.2981 9.71428 59.082 10.2583 59.082H56.0946C56.6387 59.082 57.1604 59.2981 57.5451 59.6828C57.9298 60.0675 58.1459 60.5893 58.1459 61.1333C58.1459 61.6773 57.9298 62.1991 57.5451 62.5838C57.1604 62.9685 56.6387 63.1846 56.0946 63.1846ZM56.0946 73.441H10.2583C9.71428 73.441 9.19253 73.2249 8.80784 72.8402C8.42315 72.4555 8.20703 71.9337 8.20703 71.3897C8.20703 70.8457 8.42315 70.3239 8.80784 69.9392C9.19253 69.5545 9.71428 69.3384 10.2583 69.3384H56.0946C56.6387 69.3384 57.1604 69.5545 57.5451 69.9392C57.9298 70.3239 58.1459 70.8457 58.1459 71.3897C58.1459 71.9337 57.9298 72.4555 57.5451 72.8402C57.1604 73.2249 56.6387 73.441 56.0946 73.441ZM56.0946 83.6974H10.2583C9.71428 83.6974 9.19253 83.4813 8.80784 83.0966C8.42315 82.7119 8.20703 82.1901 8.20703 81.6461C8.20703 81.1021 8.42315 80.5803 8.80784 80.1956C9.19253 79.8109 9.71428 79.5948 10.2583 79.5948H56.0946C56.6387 79.5948 57.1604 79.8109 57.5451 80.1956C57.9298 80.5803 58.1459 81.1021 58.1459 81.6461C58.1459 82.1901 57.9298 82.7119 57.5451 83.0966C57.1604 83.4813 56.6387 83.6974 56.0946 83.6974ZM56.0946 93.9538H10.2583C9.71428 93.9538 9.19253 93.7376 8.80784 93.353C8.42315 92.9683 8.20703 92.4465 8.20703 91.9025C8.20703 91.3585 8.42315 90.8367 8.80784 90.452C9.19253 90.0673 9.71428 89.8512 10.2583 89.8512H56.0946C56.6387 89.8512 57.1604 90.0673 57.5451 90.452C57.9298 90.8367 58.1459 91.3585 58.1459 91.9025C58.1459 92.4465 57.9298 92.9683 57.5451 93.353C57.1604 93.7376 56.6387 93.9538 56.0946 93.9538ZM56.0946 104.21H10.2583C9.71428 104.21 9.19253 103.994 8.80784 103.609C8.42315 103.225 8.20703 102.703 8.20703 102.159C8.20703 101.615 8.42315 101.093 8.80784 100.708C9.19253 100.324 9.71428 100.108 10.2583 100.108H56.0946C56.6387 100.108 57.1604 100.324 57.5451 100.708C57.9298 101.093 58.1459 101.615 58.1459 102.159C58.1459 102.703 57.9298 103.225 57.5451 103.609C57.1604 103.994 56.6387 104.21 56.0946 104.21Z" fill="#6C2BC1"/>
<path d="M13.0159 119.77H5.1282C2.29589 119.77 0 117.474 0 114.641V107.289H0.534871C7.42819 107.289 13.0159 112.877 13.0159 119.77Z" fill="#FFC91D"/>
<path d="M5.1282 117.202C2.29589 117.202 0 114.907 0 112.074V114.638C0 117.471 2.29589 119.767 5.1282 119.767H13.0154C13.0157 118.905 12.927 118.046 12.7507 117.202H5.1282Z" fill="#FFA91A"/>
<path d="M53.332 119.77H61.2192C64.0515 119.77 66.3474 117.474 66.3474 114.641V107.289H65.8125C58.9197 107.289 53.332 112.877 53.332 119.77Z" fill="#FFC91D"/>
<path d="M65.8125 107.289C65.1212 107.289 64.4443 107.348 63.7833 107.456V112.077C63.7833 114.91 61.4874 117.205 58.6551 117.205H53.5966C53.4204 118.049 53.3317 118.908 53.332 119.77H61.2192C64.0515 119.77 66.3474 117.474 66.3474 114.641V107.289H65.8125Z" fill="#FFA91A"/>
<path d="M85.6495 116.969H45.625L48.9696 101.901C49.4754 99.6225 50.7432 97.5845 52.5637 96.1239C54.3842 94.6632 56.6484 93.8672 58.9824 93.8672H72.2921C74.6262 93.8672 76.8904 94.6632 78.7109 96.1239C80.5313 97.5845 81.7991 99.6225 82.3049 101.901L85.6495 116.969Z" fill="#FFD2C0"/>
<path d="M82.3035 101.901C81.7977 99.6225 80.5299 97.5846 78.7094 96.1239C76.8889 94.6632 74.6247 93.8672 72.2907 93.8672H69.7266C72.0606 93.8672 74.3248 94.6632 76.1453 96.1239C77.9658 97.5846 79.2336 99.6225 79.7394 101.901L83.084 116.969H85.6481L82.3035 101.901Z" fill="#FCC4AE"/>
<path d="M101.773 116.969H29.5V122.052C29.5 124.884 31.7959 127.18 34.6282 127.18H96.644C99.4763 127.18 101.772 124.884 101.772 122.052L101.773 116.969Z" fill="#F2AD97"/>
<path d="M99.2092 116.969V119.488C99.2092 122.32 96.9133 124.616 94.081 124.616H32.0647C31.3377 124.616 30.6191 124.46 29.957 124.16C30.7616 125.94 32.5483 127.18 34.6288 127.18H96.6446C99.4769 127.18 101.773 124.884 101.773 122.052V116.969H99.2092Z" fill="#E59076"/>
<path d="M47.005 110.75L45.625 116.968H85.6495L84.2695 110.75H47.005Z" fill="#F79219"/>
<path d="M84.2672 110.75H81.7031L83.0831 116.968H85.6472L84.2672 110.75Z" fill="#EF7816"/>
</svg>
