<svg width="120" height="120" viewBox="0 0 120 120" fill="none" xmlns="http://www.w3.org/2000/svg">
<path d="M108.249 48.2503C108.249 54.4221 101.767 59.2614 99.5403 64.6283C97.2334 70.1917 98.3093 78.1759 94.1155 82.3676C89.9217 86.5593 81.9397 85.4834 76.3762 87.7903C71.0093 90.0165 66.17 96.4986 59.9983 96.4986C53.8265 96.4986 48.9872 90.0165 43.6203 87.7903C38.0569 85.4834 30.0728 86.5593 25.881 82.3655C21.6893 78.1717 22.7652 70.1897 20.4583 64.6262C18.2321 59.2593 11.75 54.42 11.75 48.2483C11.75 42.0765 18.2321 37.2372 20.4583 31.8703C22.7652 26.3069 21.6893 18.3228 25.8831 14.131C30.0769 9.93931 38.059 11.0152 43.6224 8.70828C48.9893 6.48207 53.8286 0 60.0003 0C66.1721 0 71.0114 6.48207 76.3783 8.70828C81.9417 11.0152 89.9259 9.93931 94.1176 14.1331C98.3093 18.3269 97.2334 26.309 99.5403 31.8724C101.767 37.2393 108.249 42.0786 108.249 48.2503Z" fill="#FFCB29"/>
<path d="M59.9993 79.2838C77.1392 79.2838 91.0338 65.3892 91.0338 48.2493C91.0338 31.1095 77.1392 17.2148 59.9993 17.2148C42.8595 17.2148 28.9648 31.1095 28.9648 48.2493C28.9648 65.3892 42.8595 79.2838 59.9993 79.2838Z" fill="#FAA629"/>
<path d="M43.6221 87.7935C38.0586 85.4866 30.0745 86.5625 25.8828 82.3687C23.1683 79.6542 22.6614 75.3507 22.0159 71.1445L0 97.3832L21.4593 99.1852L26.9586 120.005L50.3462 92.1321C48.1055 90.4666 45.9103 88.7432 43.6221 87.7935ZM97.9841 71.1466C97.3386 75.3528 96.8317 79.6563 94.1172 82.3707C89.9255 86.5625 81.9414 85.4866 76.3779 87.7935C74.0876 88.7432 71.8945 90.4666 69.6538 92.1321L93.0414 120.005L98.5407 99.1852L120 97.3832L97.9841 71.1466Z" fill="#3D82C4"/>
<path d="M59.9996 30.543L65.7534 42.2037L78.6203 44.0719L69.3099 53.1485L71.5072 65.9637L59.9996 59.9119L48.492 65.9637L50.6893 53.1485L41.3789 44.0719L54.2458 42.2037L59.9996 30.543Z" fill="#FFCB29"/>
</svg>
