<svg width="36" height="28" viewBox="0 0 36 28" fill="none" xmlns="http://www.w3.org/2000/svg">
<path d="M8.8382 21.7275C6.9006 22.1643 5.1478 22.4107 3.731 22.4107C1.8606 22.4107 0.561404 21.9795 0.135804 21.0051C-0.312196 19.9579 0.348604 18.5915 2.1126 16.9507C2.16591 16.8999 2.22881 16.8603 2.29761 16.8342C2.36642 16.8081 2.43974 16.796 2.51329 16.7986C2.58684 16.8012 2.65912 16.8185 2.72591 16.8494C2.79269 16.8803 2.85263 16.9243 2.9022 16.9787C3.115 17.2027 3.1038 17.5555 2.8742 17.7683C0.947804 19.5659 1.0822 20.3611 1.1662 20.5571C1.5582 21.4643 4.4142 21.5875 8.939 20.5403C8.7542 20.9491 8.7206 21.3411 8.8382 21.7275ZM35.651 7.44745C35.1526 8.69065 33.5566 10.2643 31.2046 11.9331C31.0422 12.0507 30.8742 12.1683 30.7006 12.2803C30.5102 12.0227 30.2246 11.7539 29.799 11.5579C30.2078 11.2835 30.5942 11.0147 30.9582 10.7459C32.991 9.25625 34.2454 7.95145 34.615 7.03305C34.7326 6.73625 34.755 6.49545 34.6766 6.32185C34.475 5.85145 33.3662 5.43145 30.8518 5.66665C30.5494 5.68905 30.2694 5.46505 30.2414 5.15705C30.2134 4.84905 30.443 4.58025 30.751 4.54665C33.5454 4.29465 35.2142 4.74265 35.707 5.87385C35.903 6.33865 35.8862 6.86505 35.651 7.44745ZM26.887 12.5211C26.719 12.5547 26.5622 12.6107 26.4054 12.6779L13.0998 18.4571L9.8126 17.0347L8.2894 17.6955L10.4902 20.3275C10.0534 20.7475 9.7902 21.1563 9.9246 21.4643C10.3726 22.4891 14.1358 20.8539 14.1358 20.8539C14.1358 20.8539 28.175 14.7555 29.1998 14.3075C30.2246 13.8595 29.9278 13.1763 29.9278 13.1763C29.4518 12.0731 27.587 12.3643 26.8758 12.5211H26.887Z" fill="#0082FF"/>
<path d="M12.9824 14.4371L17.076 16.7275L20.9736 15.0363L15.3792 13.3955L12.9824 14.4371ZM21.332 17.7299L18.812 24.1139L16.4152 25.1555L17.9216 19.0403L21.332 17.7299Z" fill="#0082FF"/>
<path d="M29.2051 14.308C28.6955 14.5264 24.9547 16.156 21.3315 17.7296L18.8115 24.1136L16.4147 25.1552L17.8763 19.2304C15.7315 20.16 14.1411 20.8544 14.1411 20.8544C14.1411 20.8544 10.3723 22.4896 9.92986 21.4592C9.79546 21.1512 10.0587 20.7424 10.4955 20.3224L8.28906 17.696L9.81226 17.0352L13.0995 18.4576L17.0755 16.7272L12.9819 14.4368L15.3787 13.3953L20.9731 15.036L26.4051 12.6729C26.5619 12.6057 26.7187 12.5553 26.8867 12.5217C27.5979 12.3649 29.4571 12.0737 29.9387 13.1769C29.9387 13.1769 30.2355 13.86 29.2051 14.308ZM30.8011 10.1697C30.7451 10.2089 30.6891 10.2537 30.6275 10.2985C30.5267 10.3713 30.4259 10.4441 30.3195 10.5225C30.0507 10.7129 29.7763 10.9033 29.4851 11.0937L29.1211 11.3401C28.8523 11.2785 28.5499 11.2449 28.2027 11.2449C27.9619 11.2449 27.7267 11.2617 27.5027 11.2841C27.5475 11.1889 27.6259 11.1105 27.7267 11.0601L28.2755 10.7801C28.4491 10.6961 28.5611 10.5169 28.5611 10.3209V9.47525C28.5611 9.18965 28.3315 8.96005 28.0459 8.96005H27.5643C27.4803 8.96005 27.4019 8.97685 27.3347 9.01605L26.5507 9.40245C26.4795 9.43839 26.4008 9.4571 26.3211 9.4571C26.2413 9.4571 26.1627 9.43839 26.0915 9.40245L25.3075 9.01605C25.2373 8.97717 25.158 8.95783 25.0779 8.96005H22.3563C22.0707 8.96005 21.8411 8.73045 21.8411 8.44485V7.59925C21.8411 7.40325 21.9531 7.22405 22.1267 7.14005L22.6755 6.86005C22.8491 6.77605 22.9611 6.59685 22.9611 6.40085V5.75685C22.9611 5.65605 22.9891 5.55525 23.0451 5.47125L23.8459 4.27285C23.9132 4.17447 23.9439 4.05559 23.9327 3.9369C23.9214 3.81821 23.8689 3.70722 23.7843 3.62325C23.7075 3.54718 23.6569 3.44869 23.6398 3.34199C23.6227 3.23528 23.6399 3.12591 23.6891 3.02965L23.9691 2.63205L24.2939 2.17285C27.4075 3.84725 29.7819 6.72005 30.8011 10.1697Z" fill="#0082FF"/>
<path d="M31.3599 14.0001C31.3599 16.9961 30.3743 19.7625 28.7167 22.0025L28.3079 21.5993L27.0479 20.3561C26.953 20.258 26.8972 20.1285 26.8911 19.9921L26.8799 18.0881C26.8799 17.9817 26.8463 17.8753 26.7791 17.7857L26.0959 16.8785C27.8375 16.1281 29.5175 15.3889 29.6519 15.3329C30.2063 15.0921 30.5647 14.7729 30.7887 14.4257C31.1695 13.8489 31.1527 13.2049 30.9791 12.7681L31.0015 12.7513C31.0967 12.6897 31.1919 12.6281 31.2815 12.5665C31.3319 13.0369 31.3599 13.5185 31.3599 14.0001ZM10.0799 8.35533V9.80573C10.0799 9.97933 10.1639 10.1361 10.3095 10.2313L11.6311 11.1161C11.7151 11.1721 11.8159 11.2001 11.9167 11.2001H12.9247C13.2103 11.2001 13.4399 11.4297 13.4399 11.7153V12.3649C13.4399 12.6001 13.5967 12.7961 13.8095 12.8577L10.4607 14.3081L14.5543 16.6041L13.0983 17.2369L9.81108 15.8145L9.49748 15.9489L8.12548 15.2601C8.03959 15.2181 7.96725 15.1527 7.91675 15.0715C7.86624 14.9903 7.83961 14.8966 7.83988 14.8009V13.3953C7.83988 13.1097 8.06948 12.8801 8.35508 12.8801H8.44468C8.73028 12.8801 8.95988 12.6505 8.95988 12.3649V12.0345C8.95988 11.8609 8.87588 11.7041 8.73028 11.6089L7.50948 10.7913C7.4386 10.7453 7.38042 10.6822 7.3403 10.6079C7.30018 10.5335 7.2794 10.4502 7.27988 10.3657V8.61293C7.27988 8.47853 7.22388 8.34413 7.12868 8.24893L6.23828 7.35853C7.63828 4.89453 9.79428 2.92333 12.3927 1.75293L13.2887 2.64893C13.3839 2.74413 13.4399 2.87853 13.4399 3.01293V4.52493C13.4399 4.81053 13.6695 5.04013 13.9551 5.04013H14.0447C14.3303 5.04013 14.5599 5.26973 14.5599 5.55533V5.90253C14.5599 6.06493 14.4815 6.21613 14.3527 6.31693L12.4543 7.73933C12.3703 7.80653 12.2583 7.84013 12.1463 7.84013H10.5951C10.3095 7.84013 10.0799 8.06973 10.0799 8.35533Z" fill="#0082FF"/>
<path d="M17.9219 28C10.1995 28 3.92188 21.7224 3.92188 14C3.92188 6.2776 10.1995 0 17.9219 0C25.6443 0 31.9219 6.2776 31.9219 14C31.9219 21.7224 25.6443 28 17.9219 28ZM17.9219 1.12C10.8211 1.12 5.04188 6.8992 5.04188 14C5.04188 21.1008 10.8211 26.88 17.9219 26.88C25.0227 26.88 30.8019 21.1008 30.8019 14C30.8019 6.8992 25.0227 1.12 17.9219 1.12Z" fill="#0082FF"/>
</svg>
