<svg width="189" height="38" viewBox="0 0 189 38" fill="none" xmlns="http://www.w3.org/2000/svg">
<path d="M49.9375 7.25V30H45.6562V7.25H49.9375ZM57 7.25V10.6406H38.6719V7.25H57ZM62.5781 16.5469V30H58.4531V13.0938H62.3594L62.5781 16.5469ZM67.7188 12.9844L67.6562 16.8281C67.4271 16.7865 67.1667 16.7552 66.875 16.7344C66.5938 16.7135 66.3281 16.7031 66.0781 16.7031C65.4427 16.7031 64.8854 16.7917 64.4062 16.9688C63.9271 17.1354 63.526 17.3802 63.2031 17.7031C62.8906 18.026 62.651 18.4219 62.4844 18.8906C62.3177 19.349 62.224 19.8698 62.2031 20.4531L61.3125 20.3438C61.3125 19.2708 61.4219 18.276 61.6406 17.3594C61.8594 16.4427 62.1771 15.6406 62.5938 14.9531C63.0104 14.2656 63.5312 13.7344 64.1562 13.3594C64.7917 12.974 65.5208 12.7812 66.3438 12.7812C66.5729 12.7812 66.8177 12.8021 67.0781 12.8438C67.349 12.875 67.5625 12.9219 67.7188 12.9844ZM78.7656 26.4062V18.6094C78.7656 18.0365 78.6667 17.5417 78.4688 17.125C78.2708 16.7083 77.9688 16.3854 77.5625 16.1562C77.1562 15.9271 76.6406 15.8125 76.0156 15.8125C75.4635 15.8125 74.9792 15.9062 74.5625 16.0938C74.1562 16.2812 73.8438 16.5469 73.625 16.8906C73.4062 17.224 73.2969 17.6094 73.2969 18.0469H69.1562C69.1562 17.349 69.3229 16.6875 69.6562 16.0625C69.9896 15.4271 70.4635 14.8646 71.0781 14.375C71.7031 13.875 72.4479 13.4844 73.3125 13.2031C74.1875 12.9219 75.1667 12.7812 76.25 12.7812C77.5312 12.7812 78.6719 13 79.6719 13.4375C80.6823 13.8646 81.474 14.5104 82.0469 15.375C82.6302 16.2396 82.9219 17.3281 82.9219 18.6406V26.0156C82.9219 26.8594 82.974 27.5833 83.0781 28.1875C83.1927 28.7812 83.3594 29.2969 83.5781 29.7344V30H79.375C79.1771 29.5729 79.026 29.0312 78.9219 28.375C78.8177 27.7083 78.7656 27.0521 78.7656 26.4062ZM79.3438 19.7031L79.375 22.1562H76.7656C76.1198 22.1562 75.5521 22.224 75.0625 22.3594C74.5729 22.4844 74.1719 22.6719 73.8594 22.9219C73.5469 23.1615 73.3125 23.4531 73.1562 23.7969C73 24.1302 72.9219 24.5104 72.9219 24.9375C72.9219 25.3542 73.0156 25.7292 73.2031 26.0625C73.401 26.3958 73.6823 26.6615 74.0469 26.8594C74.4219 27.0469 74.8594 27.1406 75.3594 27.1406C76.0885 27.1406 76.724 26.9948 77.2656 26.7031C77.8073 26.401 78.2292 26.0365 78.5312 25.6094C78.8333 25.1823 78.9948 24.776 79.0156 24.3906L80.2031 26.1719C80.0573 26.599 79.8385 27.0521 79.5469 27.5312C79.2552 28.0104 78.8802 28.4583 78.4219 28.875C77.9635 29.2917 77.4115 29.6354 76.7656 29.9062C76.1198 30.1771 75.3698 30.3125 74.5156 30.3125C73.4219 30.3125 72.4427 30.0938 71.5781 29.6562C70.7135 29.2188 70.0312 28.6198 69.5312 27.8594C69.0312 27.099 68.7812 26.2344 68.7812 25.2656C68.7812 24.3698 68.9479 23.5781 69.2812 22.8906C69.6146 22.2031 70.1094 21.625 70.7656 21.1562C71.4219 20.6771 72.2344 20.3177 73.2031 20.0781C74.1823 19.8281 75.3021 19.7031 76.5625 19.7031H79.3438ZM92 26.875L95.9375 13.0938H100.25L94.4531 30H91.8281L92 26.875ZM89.125 13.0938L93.1094 26.9062L93.25 30H90.6094L84.7969 13.0938H89.125ZM109.797 30.3125C108.516 30.3125 107.365 30.1042 106.344 29.6875C105.323 29.2708 104.453 28.6927 103.734 27.9531C103.026 27.2031 102.479 26.3333 102.094 25.3438C101.719 24.3438 101.531 23.2708 101.531 22.125V21.5C101.531 20.1979 101.719 19.0156 102.094 17.9531C102.469 16.8802 103 15.9583 103.688 15.1875C104.375 14.4167 105.198 13.8229 106.156 13.4062C107.115 12.9896 108.172 12.7812 109.328 12.7812C110.526 12.7812 111.583 12.9844 112.5 13.3906C113.417 13.7865 114.182 14.349 114.797 15.0781C115.411 15.8073 115.875 16.6823 116.188 17.7031C116.5 18.7135 116.656 19.8333 116.656 21.0625V22.7969H103.406V19.9531H112.594V19.6406C112.573 18.9844 112.448 18.3854 112.219 17.8438C111.99 17.2917 111.635 16.8542 111.156 16.5312C110.677 16.1979 110.057 16.0312 109.297 16.0312C108.682 16.0312 108.146 16.1667 107.688 16.4375C107.24 16.6979 106.865 17.0729 106.562 17.5625C106.271 18.0417 106.052 18.6146 105.906 19.2812C105.76 19.9479 105.688 20.6875 105.688 21.5V22.125C105.688 22.8333 105.781 23.4896 105.969 24.0938C106.167 24.6979 106.453 25.224 106.828 25.6719C107.214 26.1094 107.672 26.4531 108.203 26.7031C108.745 26.9427 109.359 27.0625 110.047 27.0625C110.911 27.0625 111.693 26.8958 112.391 26.5625C113.099 26.2188 113.714 25.7135 114.234 25.0469L116.312 27.2031C115.958 27.724 115.479 28.224 114.875 28.7031C114.281 29.1823 113.562 29.5729 112.719 29.875C111.875 30.1667 110.901 30.3125 109.797 30.3125ZM123.797 6V30H119.656V6H123.797ZM136.047 25.5469L141.719 7.25H146.484L138.453 30H135.281L136.047 25.5469ZM130.812 7.25L136.453 25.5469L137.266 30H134.062L126.062 7.25H130.812ZM155.422 30.3125C154.141 30.3125 152.99 30.1042 151.969 29.6875C150.948 29.2708 150.078 28.6927 149.359 27.9531C148.651 27.2031 148.104 26.3333 147.719 25.3438C147.344 24.3438 147.156 23.2708 147.156 22.125V21.5C147.156 20.1979 147.344 19.0156 147.719 17.9531C148.094 16.8802 148.625 15.9583 149.312 15.1875C150 14.4167 150.823 13.8229 151.781 13.4062C152.74 12.9896 153.797 12.7812 154.953 12.7812C156.151 12.7812 157.208 12.9844 158.125 13.3906C159.042 13.7865 159.807 14.349 160.422 15.0781C161.036 15.8073 161.5 16.6823 161.812 17.7031C162.125 18.7135 162.281 19.8333 162.281 21.0625V22.7969H149.031V19.9531H158.219V19.6406C158.198 18.9844 158.073 18.3854 157.844 17.8438C157.615 17.2917 157.26 16.8542 156.781 16.5312C156.302 16.1979 155.682 16.0312 154.922 16.0312C154.307 16.0312 153.771 16.1667 153.312 16.4375C152.865 16.6979 152.49 17.0729 152.188 17.5625C151.896 18.0417 151.677 18.6146 151.531 19.2812C151.385 19.9479 151.312 20.6875 151.312 21.5V22.125C151.312 22.8333 151.406 23.4896 151.594 24.0938C151.792 24.6979 152.078 25.224 152.453 25.6719C152.839 26.1094 153.297 26.4531 153.828 26.7031C154.37 26.9427 154.984 27.0625 155.672 27.0625C156.536 27.0625 157.318 26.8958 158.016 26.5625C158.724 26.2188 159.339 25.7135 159.859 25.0469L161.938 27.2031C161.583 27.724 161.104 28.224 160.5 28.7031C159.906 29.1823 159.188 29.5729 158.344 29.875C157.5 30.1667 156.526 30.3125 155.422 30.3125ZM169.422 6V30H165.281V6H169.422ZM182.672 26.4062V18.6094C182.672 18.0365 182.573 17.5417 182.375 17.125C182.177 16.7083 181.875 16.3854 181.469 16.1562C181.062 15.9271 180.547 15.8125 179.922 15.8125C179.37 15.8125 178.885 15.9062 178.469 16.0938C178.062 16.2812 177.75 16.5469 177.531 16.8906C177.312 17.224 177.203 17.6094 177.203 18.0469H173.062C173.062 17.349 173.229 16.6875 173.562 16.0625C173.896 15.4271 174.37 14.8646 174.984 14.375C175.609 13.875 176.354 13.4844 177.219 13.2031C178.094 12.9219 179.073 12.7812 180.156 12.7812C181.438 12.7812 182.578 13 183.578 13.4375C184.589 13.8646 185.38 14.5104 185.953 15.375C186.536 16.2396 186.828 17.3281 186.828 18.6406V26.0156C186.828 26.8594 186.88 27.5833 186.984 28.1875C187.099 28.7812 187.266 29.2969 187.484 29.7344V30H183.281C183.083 29.5729 182.932 29.0312 182.828 28.375C182.724 27.7083 182.672 27.0521 182.672 26.4062ZM183.25 19.7031L183.281 22.1562H180.672C180.026 22.1562 179.458 22.224 178.969 22.3594C178.479 22.4844 178.078 22.6719 177.766 22.9219C177.453 23.1615 177.219 23.4531 177.062 23.7969C176.906 24.1302 176.828 24.5104 176.828 24.9375C176.828 25.3542 176.922 25.7292 177.109 26.0625C177.307 26.3958 177.589 26.6615 177.953 26.8594C178.328 27.0469 178.766 27.1406 179.266 27.1406C179.995 27.1406 180.63 26.9948 181.172 26.7031C181.714 26.401 182.135 26.0365 182.438 25.6094C182.74 25.1823 182.901 24.776 182.922 24.3906L184.109 26.1719C183.964 26.599 183.745 27.0521 183.453 27.5312C183.161 28.0104 182.786 28.4583 182.328 28.875C181.87 29.2917 181.318 29.6354 180.672 29.9062C180.026 30.1771 179.276 30.3125 178.422 30.3125C177.328 30.3125 176.349 30.0938 175.484 29.6562C174.62 29.2188 173.938 28.6198 173.438 27.8594C172.938 27.099 172.688 26.2344 172.688 25.2656C172.688 24.3698 172.854 23.5781 173.188 22.8906C173.521 22.2031 174.016 21.625 174.672 21.1562C175.328 20.6771 176.141 20.3177 177.109 20.0781C178.089 19.8281 179.208 19.7031 180.469 19.7031H183.25Z" fill="#0082FF"/>
<path d="M8.8382 26.7275C6.9006 27.1643 5.1478 27.4107 3.731 27.4107C1.8606 27.4107 0.561404 26.9795 0.135804 26.0051C-0.312196 24.9579 0.348604 23.5915 2.1126 21.9507C2.16591 21.8999 2.22881 21.8603 2.29761 21.8342C2.36642 21.8081 2.43974 21.796 2.51329 21.7986C2.58684 21.8012 2.65912 21.8185 2.72591 21.8494C2.79269 21.8803 2.85263 21.9243 2.9022 21.9787C3.115 22.2027 3.1038 22.5555 2.8742 22.7683C0.947804 24.5659 1.0822 25.3611 1.1662 25.5571C1.5582 26.4643 4.4142 26.5875 8.939 25.5403C8.7542 25.9491 8.7206 26.3411 8.8382 26.7275ZM35.651 12.4475C35.1526 13.6907 33.5566 15.2643 31.2046 16.9331C31.0422 17.0507 30.8742 17.1683 30.7006 17.2803C30.5102 17.0227 30.2246 16.7539 29.799 16.5579C30.2078 16.2835 30.5942 16.0147 30.9582 15.7459C32.991 14.2563 34.2454 12.9515 34.615 12.0331C34.7326 11.7363 34.755 11.4955 34.6766 11.3219C34.475 10.8515 33.3662 10.4315 30.8518 10.6667C30.5494 10.6891 30.2694 10.4651 30.2414 10.1571C30.2134 9.84905 30.443 9.58025 30.751 9.54665C33.5454 9.29465 35.2142 9.74265 35.707 10.8739C35.903 11.3387 35.8862 11.8651 35.651 12.4475ZM26.887 17.5211C26.719 17.5547 26.5622 17.6107 26.4054 17.6779L13.0998 23.4571L9.8126 22.0347L8.2894 22.6955L10.4902 25.3275C10.0534 25.7475 9.7902 26.1563 9.9246 26.4643C10.3726 27.4891 14.1358 25.8539 14.1358 25.8539C14.1358 25.8539 28.175 19.7555 29.1998 19.3075C30.2246 18.8595 29.9278 18.1763 29.9278 18.1763C29.4518 17.0731 27.587 17.3643 26.8758 17.5211H26.887Z" fill="#0082FF"/>
<path d="M12.9824 19.4371L17.076 21.7275L20.9736 20.0363L15.3792 18.3955L12.9824 19.4371ZM21.332 22.7299L18.812 29.1139L16.4152 30.1555L17.9216 24.0403L21.332 22.7299Z" fill="#0082FF"/>
<path d="M29.2051 19.308C28.6955 19.5264 24.9547 21.156 21.3315 22.7296L18.8115 29.1136L16.4147 30.1552L17.8763 24.2304C15.7315 25.16 14.1411 25.8544 14.1411 25.8544C14.1411 25.8544 10.3723 27.4896 9.92986 26.4592C9.79546 26.1512 10.0587 25.7424 10.4955 25.3224L8.28906 22.696L9.81226 22.0352L13.0995 23.4576L17.0755 21.7272L12.9819 19.4368L15.3787 18.3953L20.9731 20.036L26.4051 17.6729C26.5619 17.6057 26.7187 17.5553 26.8867 17.5217C27.5979 17.3649 29.4571 17.0737 29.9387 18.1769C29.9387 18.1769 30.2355 18.86 29.2051 19.308ZM30.8011 15.1697C30.7451 15.2089 30.6891 15.2537 30.6275 15.2985C30.5267 15.3713 30.4259 15.4441 30.3195 15.5225C30.0507 15.7129 29.7763 15.9033 29.4851 16.0937L29.1211 16.3401C28.8523 16.2785 28.5499 16.2449 28.2027 16.2449C27.9619 16.2449 27.7267 16.2617 27.5027 16.2841C27.5475 16.1889 27.6259 16.1105 27.7267 16.0601L28.2755 15.7801C28.4491 15.6961 28.5611 15.5169 28.5611 15.3209V14.4753C28.5611 14.1897 28.3315 13.9601 28.0459 13.9601H27.5643C27.4803 13.9601 27.4019 13.9769 27.3347 14.0161L26.5507 14.4025C26.4795 14.4384 26.4008 14.4571 26.3211 14.4571C26.2413 14.4571 26.1627 14.4384 26.0915 14.4025L25.3075 14.0161C25.2373 13.9772 25.158 13.9578 25.0779 13.9601H22.3563C22.0707 13.9601 21.8411 13.7305 21.8411 13.4449V12.5993C21.8411 12.4033 21.9531 12.2241 22.1267 12.1401L22.6755 11.8601C22.8491 11.7761 22.9611 11.5969 22.9611 11.4009V10.7569C22.9611 10.6561 22.9891 10.5553 23.0451 10.4713L23.8459 9.27285C23.9132 9.17447 23.9439 9.05559 23.9327 8.9369C23.9214 8.81821 23.8689 8.70722 23.7843 8.62325C23.7075 8.54718 23.6569 8.44869 23.6398 8.34199C23.6227 8.23528 23.6399 8.12591 23.6891 8.02965L23.9691 7.63205L24.2939 7.17285C27.4075 8.84725 29.7819 11.7201 30.8011 15.1697Z" fill="#0082FF"/>
<path d="M31.3599 19.0001C31.3599 21.9961 30.3743 24.7625 28.7167 27.0025L28.3079 26.5993L27.0479 25.3561C26.953 25.258 26.8972 25.1285 26.8911 24.9921L26.8799 23.0881C26.8799 22.9817 26.8463 22.8753 26.7791 22.7857L26.0959 21.8785C27.8375 21.1281 29.5175 20.3889 29.6519 20.3329C30.2063 20.0921 30.5647 19.7729 30.7887 19.4257C31.1695 18.8489 31.1527 18.2049 30.9791 17.7681L31.0015 17.7513C31.0967 17.6897 31.1919 17.6281 31.2815 17.5665C31.3319 18.0369 31.3599 18.5185 31.3599 19.0001ZM10.0799 13.3553V14.8057C10.0799 14.9793 10.1639 15.1361 10.3095 15.2313L11.6311 16.1161C11.7151 16.1721 11.8159 16.2001 11.9167 16.2001H12.9247C13.2103 16.2001 13.4399 16.4297 13.4399 16.7153V17.3649C13.4399 17.6001 13.5967 17.7961 13.8095 17.8577L10.4607 19.3081L14.5543 21.6041L13.0983 22.2369L9.81108 20.8145L9.49748 20.9489L8.12548 20.2601C8.03959 20.2181 7.96725 20.1527 7.91675 20.0715C7.86624 19.9903 7.83961 19.8966 7.83988 19.8009V18.3953C7.83988 18.1097 8.06948 17.8801 8.35508 17.8801H8.44468C8.73028 17.8801 8.95988 17.6505 8.95988 17.3649V17.0345C8.95988 16.8609 8.87588 16.7041 8.73028 16.6089L7.50948 15.7913C7.4386 15.7453 7.38042 15.6822 7.3403 15.6079C7.30018 15.5335 7.2794 15.4502 7.27988 15.3657V13.6129C7.27988 13.4785 7.22388 13.3441 7.12868 13.2489L6.23828 12.3585C7.63828 9.89453 9.79428 7.92333 12.3927 6.75293L13.2887 7.64893C13.3839 7.74413 13.4399 7.87853 13.4399 8.01293V9.52493C13.4399 9.81053 13.6695 10.0401 13.9551 10.0401H14.0447C14.3303 10.0401 14.5599 10.2697 14.5599 10.5553V10.9025C14.5599 11.0649 14.4815 11.2161 14.3527 11.3169L12.4543 12.7393C12.3703 12.8065 12.2583 12.8401 12.1463 12.8401H10.5951C10.3095 12.8401 10.0799 13.0697 10.0799 13.3553Z" fill="#0082FF"/>
<path d="M17.9219 33C10.1995 33 3.92188 26.7224 3.92188 19C3.92188 11.2776 10.1995 5 17.9219 5C25.6443 5 31.9219 11.2776 31.9219 19C31.9219 26.7224 25.6443 33 17.9219 33ZM17.9219 6.12C10.8211 6.12 5.04188 11.8992 5.04188 19C5.04188 26.1008 10.8211 31.88 17.9219 31.88C25.0227 31.88 30.8019 26.1008 30.8019 19C30.8019 11.8992 25.0227 6.12 17.9219 6.12Z" fill="#0082FF"/>
</svg>
