<svg width="120" height="115" viewBox="0 0 120 115" fill="none" xmlns="http://www.w3.org/2000/svg">
<path d="M91.0929 103.937C105.483 93.5025 114.845 76.557 114.845 57.4224C114.845 25.7088 89.1359 0 57.4224 0C25.7088 0 0 25.7088 0 57.4224C0 64.5382 1.29797 71.3501 3.66398 77.6386L91.0929 103.937Z" fill="#2A428C"/>
<path d="M93.384 95.3794L105.495 50.1797C105.463 50.2411 105.432 50.303 105.397 50.3634L83.8555 87.6738C84.057 90.7587 85.5364 96.0335 93.384 95.3794Z" fill="#DEEEFF"/>
<path d="M84.0122 87.4062L68.8242 113.713C77.0123 112.063 84.5679 108.669 91.0912 103.939L93.5252 94.8554C85.5832 95.6977 84.1816 90.3924 84.0122 87.4062Z" fill="#BEC8F7"/>
<path d="M76.5988 25.9182C76.3491 25.7743 76.1416 25.5671 75.9974 25.3175C75.8532 25.0679 75.7773 24.7847 75.7773 24.4965C75.7771 22.8964 76.4516 20.5173 79.6659 18.2713C80.0227 18.0284 80.4609 17.936 80.8855 18.014C81.31 18.092 81.6867 18.3342 81.934 18.6881C82.1812 19.0419 82.2791 19.4789 82.2063 19.9044C82.1335 20.3299 81.8961 20.7096 81.5453 20.9612C80.4107 21.7538 79.0584 23.0108 79.0581 24.4963C79.0583 24.7842 78.9827 25.067 78.8389 25.3164C78.6951 25.5659 78.4882 25.773 78.2389 25.9171C77.9897 26.0613 77.7069 26.1372 77.419 26.1374C77.1311 26.1376 76.8482 26.062 76.5988 25.9182ZM89.2466 17.5039C88.9557 17.3363 88.7232 17.0834 88.5806 16.7795C88.4379 16.4755 88.392 16.1351 88.449 15.8042C88.506 15.4733 88.6632 15.1679 88.8994 14.9292C89.1355 14.6905 89.4393 14.53 89.7695 14.4695C92.3486 13.9948 95.0802 13.7541 97.8883 13.7539C99.7898 13.7541 101.674 13.8662 103.491 14.0867C103.921 14.1407 104.313 14.3631 104.58 14.7052C104.847 15.0473 104.968 15.4813 104.915 15.9122C104.863 16.343 104.642 16.7356 104.301 17.004C103.96 17.2724 103.526 17.3946 103.095 17.3441C101.41 17.1395 99.658 17.0356 97.8883 17.0354C95.2792 17.0354 92.7473 17.258 90.3634 17.6966C89.9801 17.767 89.5842 17.6987 89.2466 17.5039Z" fill="#FFC839"/>
<path d="M105.952 44.4485L91.3183 16.042C90.0771 13.6326 88.1692 11.6311 85.822 10.276C83.4749 8.92081 80.7875 8.26928 78.0804 8.39902L60.0129 9.26503C58.6113 11.4956 56.0847 16.4383 57.0637 21.8772C57.8372 26.1731 60.6525 29.8387 65.4309 32.7721C68.8732 34.8853 70.9516 37.8025 71.6088 41.4431C73.4025 51.3789 64.1404 63.7476 63.4844 64.6073C63.1209 64.8466 61.2342 66.1919 60.7488 68.6332C60.3792 70.4936 60.9192 72.4952 62.3547 74.5879C61.8194 74.8938 60.7879 75.5554 59.8786 76.5616C58.1636 78.4596 57.7277 80.6596 58.6186 82.9244C59.3719 84.8404 58.2801 85.6483 56.4363 86.8082C54.3377 88.1285 51.7366 89.7649 53.8633 94.4306C52.8405 95.05 49.4815 97.3357 48.9555 100.912C48.5986 103.338 49.6317 105.824 52.0265 108.303C51.5533 108.914 50.5108 110.536 50.8624 112.593C50.9782 113.27 51.2334 113.925 51.6248 114.556C53.5514 114.75 55.4865 114.846 57.4228 114.846C61.4626 114.847 65.4913 114.424 69.4425 113.582L105.805 50.6006C106.342 49.6694 106.638 48.6182 106.663 47.5433C106.689 46.4684 106.444 45.4043 105.952 44.4485ZM82.6664 27.5271C81.0391 30.3457 77.4349 31.3113 74.6163 29.684C71.7977 28.0568 70.8321 24.4525 72.4594 21.6339C74.0866 18.8153 77.6908 17.8497 80.5094 19.477C83.328 21.1043 84.2939 24.7085 82.6664 27.5271Z" fill="#FF4155"/>
<path d="M63.7255 64.8683C63.7255 64.8683 81.4454 42.1883 65.6148 32.4706C52.2777 24.2832 58.2392 12.691 60.4482 9.24219L46.1624 9.92703C45.0883 9.97846 44.0443 10.2988 43.1262 10.8586C42.2081 11.4184 41.4452 12.1999 40.9077 13.1312L3.66406 77.6384C11.2433 97.7825 29.8168 112.54 52.0735 114.596C49.7581 111.2 52.5001 108.282 52.5001 108.282C44.2189 100.001 54.3191 94.5713 54.3191 94.5713C50.3373 86.3682 60.9962 88.0088 58.9454 82.794C56.8946 77.5791 62.8712 74.7081 62.8712 74.7081C58.1837 68.2625 63.7255 64.8683 63.7255 64.8683Z" fill="#E80054"/>
<path d="M40.4548 81.7933L35.098 78.7005C33.9769 78.0534 33.593 76.6197 34.2402 75.4989L41.5803 62.7855C42.2274 61.6644 43.6611 61.2805 44.7819 61.9277L50.1387 65.0205C51.2598 65.6676 51.6437 67.1012 50.9966 68.222C50.3494 69.3428 48.9158 69.7269 47.795 69.0798L44.4678 67.1589L39.4714 75.813L42.7986 77.7339C43.9196 78.381 44.3035 79.8147 43.6564 80.9355C43.0093 82.0562 41.5756 82.4404 40.4548 81.7933Z" fill="#DEEEFF"/>
<path d="M43.7275 75.2045L38.7656 72.3397C37.6446 71.6926 37.2607 70.2589 37.9078 69.1381C38.5549 68.0173 39.9886 67.6332 41.1093 68.2803L46.0713 71.1451C47.1923 71.7922 47.5762 73.2259 46.9291 74.3466C46.282 75.4674 44.8485 75.8516 43.7275 75.2045ZM25.0821 63.7761C24.8155 63.6222 24.5819 63.4173 24.3945 63.1731C24.2071 62.9289 24.0697 62.6502 23.99 62.3529C23.9103 62.0555 23.89 61.7454 23.9302 61.4403C23.9704 61.1351 24.0703 60.8408 24.2242 60.5743L27.641 54.6566C28.2881 53.5355 29.7218 53.1516 30.8425 53.7987L34.5693 55.9505C37.3164 57.5366 38.2612 61.062 36.675 63.8091C35.0887 66.5562 31.5635 67.5008 28.8164 65.9148C27.5725 65.2003 26.3277 64.4875 25.0821 63.7761ZM30.5285 59.03L29.4604 60.8799C30.1514 61.2753 30.831 61.6648 31.1603 61.8549C31.4051 61.9959 31.6957 62.034 31.9686 61.961C32.2414 61.8879 32.4741 61.7096 32.6156 61.4652C32.7566 61.2204 32.7948 60.9296 32.7216 60.6567C32.6485 60.3839 32.4701 60.1511 32.2256 60.0097L30.5285 59.03Z" fill="#DEEEFF"/>
<path d="M21.0938 70.6909C20.8272 70.537 20.5936 70.3321 20.4062 70.0879C20.2188 69.8437 20.0814 69.565 20.0017 69.2677C19.9221 68.9703 19.9018 68.6602 19.9419 68.3551C19.9821 68.0499 20.082 67.7556 20.236 67.4891L24.2325 60.5668C24.8796 59.4458 26.3133 59.0617 27.4341 59.709L31.812 62.2365C34.8354 63.9821 35.8751 67.8622 34.1295 70.8856C32.3839 73.9091 28.5038 74.9488 25.4803 73.2031C24.5365 72.6582 21.1032 70.6963 21.1029 70.696L21.0938 70.6909ZM27.1203 64.9405L25.4721 67.7949C26.3977 68.3246 27.3825 68.8888 27.8243 69.1438C28.6095 69.5971 29.6168 69.3271 30.0701 68.5419C30.5234 67.7567 30.2534 66.7494 29.4682 66.2961L27.1203 64.9405ZM56.7811 74.3413C56.2943 74.2267 55.8882 74.323 55.6662 74.6052C55.579 74.716 55.4972 74.8836 55.5535 75.088C55.9325 75.6013 56.9874 77.0117 58.1682 78.4313C60.9101 81.7281 60.305 84.7799 58.8246 86.5365C56.8737 88.8512 53.3457 89.3115 50.435 87.631C48.1465 86.3099 46.5218 84.1553 45.964 81.7086C45.68 80.4631 46.4091 79.1673 47.6464 78.8488C48.9432 78.515 50.2449 79.3274 50.5247 80.6232C50.7788 81.8012 51.6216 82.9032 52.7787 83.5714C53.8868 84.211 54.9026 83.9162 55.2403 83.5157C55.6334 83.049 55.1489 82.1317 54.5644 81.429C53.5423 80.1949 52.5571 78.9306 51.6103 77.6378C51.5378 77.5378 51.4733 77.4322 51.4175 77.3221C50.4861 75.4864 50.7021 73.3353 51.9809 71.7085C53.3358 69.9847 55.5863 69.2448 57.8541 69.7782C61.3442 70.6002 63.2921 73.6189 63.8928 75.2741C64.3819 76.4535 63.8166 77.8058 62.6335 78.286C62.0769 78.5119 61.4553 78.5183 60.8942 78.304C60.3331 78.0896 59.8741 77.6705 59.6098 77.131C58.9768 75.8375 58.2282 74.6813 56.7811 74.3413ZM74.1277 84.2026L67.0421 80.1116C65.9211 79.4645 65.5371 78.0308 66.1843 76.91C66.8314 75.7892 68.265 75.4051 69.3858 76.0522L76.4714 80.1432C77.5925 80.7903 77.9764 82.224 77.3293 83.3448C76.6821 84.4656 75.2487 84.8497 74.1277 84.2026Z" fill="#DEEEFF"/>
<path d="M63.1605 94.9783C62.0394 94.3312 61.6555 92.8975 62.3027 91.7767L69.4738 79.3558C70.1209 78.2348 71.5546 77.8509 72.6754 78.498C73.7962 79.1451 74.1803 80.5787 73.5332 81.6995L66.362 94.1205C65.7149 95.2415 64.2815 95.6256 63.1605 94.9783Z" fill="#DEEEFF"/>
<path d="M33.4804 99.3198C33.1036 99.1023 32.8287 98.7439 32.7161 98.3236C32.6034 97.9033 32.6624 97.4555 32.88 97.0787L39.3452 85.8805C39.4521 85.6924 39.5952 85.5273 39.7662 85.3948C39.9372 85.2622 40.1327 85.1648 40.3416 85.1081C40.5504 85.0514 40.7683 85.0366 40.9829 85.0645C41.1974 85.0924 41.4044 85.1624 41.5917 85.2706C41.7791 85.3788 41.9432 85.523 42.0747 85.6948C42.2061 85.8667 42.3022 86.0629 42.3575 86.2721C42.4128 86.4812 42.4262 86.6993 42.3969 86.9137C42.3676 87.128 42.2962 87.3345 42.1868 87.5211L35.7215 98.7193C35.5039 99.0962 35.1456 99.3711 34.7253 99.4837C34.305 99.5963 33.8572 99.5374 33.4804 99.3198ZM56.6118 112.607L51.9368 109.907C51.5599 109.69 51.285 109.331 51.1724 108.911C51.0598 108.491 51.1187 108.043 51.3363 107.666L57.7425 96.5701C57.96 96.1933 58.3184 95.9184 58.7387 95.8058C59.1589 95.6931 59.6067 95.7521 59.9836 95.9697L64.6586 98.669C64.8467 98.7759 65.0118 98.919 65.1444 99.09C65.2769 99.261 65.3744 99.4565 65.4311 99.6653C65.4877 99.8741 65.5026 100.092 65.4747 100.307C65.4468 100.521 65.3767 100.728 65.2686 100.916C65.1604 101.103 65.0162 101.267 64.8443 101.398C64.6724 101.53 64.4763 101.626 64.2671 101.681C64.0579 101.737 63.8399 101.75 63.6255 101.721C63.4111 101.691 63.2047 101.62 63.018 101.511L59.7637 99.6315L54.9982 107.886L58.2525 109.765C58.4405 109.872 58.6056 110.015 58.7382 110.186C58.8708 110.357 58.9682 110.553 59.0249 110.761C59.0816 110.97 59.0964 111.188 59.0685 111.403C59.0406 111.617 58.9706 111.824 58.8624 112.012C58.7542 112.199 58.61 112.363 58.4381 112.494C58.2663 112.626 58.0701 112.722 57.8609 112.777C57.6517 112.833 57.4337 112.846 57.2193 112.817C57.0049 112.787 56.7985 112.716 56.6118 112.607Z" fill="#FFDD40"/>
<path d="M59.4686 106.859L55.1381 104.359C54.95 104.252 54.7849 104.108 54.6523 103.937C54.5198 103.766 54.4223 103.571 54.3657 103.362C54.309 103.153 54.2941 102.935 54.322 102.721C54.3499 102.506 54.42 102.299 54.5282 102.112C54.6363 101.925 54.7805 101.76 54.9524 101.629C55.1243 101.498 55.3204 101.401 55.5296 101.346C55.7388 101.291 55.9568 101.277 56.1712 101.307C56.3856 101.336 56.592 101.408 56.7787 101.517L61.1093 104.017C61.2973 104.124 61.4624 104.267 61.595 104.438C61.7275 104.609 61.825 104.805 61.8817 105.013C61.9384 105.222 61.9532 105.44 61.9253 105.655C61.8974 105.869 61.8274 106.076 61.7192 106.264C61.611 106.451 61.4668 106.615 61.2949 106.747C61.1231 106.878 60.9269 106.974 60.7177 107.029C60.5085 107.085 60.2905 107.098 60.0761 107.069C59.8617 107.039 59.6553 106.968 59.4686 106.859ZM43.7299 105.237C39.8592 103.002 38.5282 98.0351 40.7629 94.1644C42.9977 90.2937 47.965 88.9626 51.8357 91.1974C53.2362 92.003 54.3626 93.2105 55.0689 94.6636C55.2594 95.0548 55.2867 95.5056 55.1448 95.917C55.0029 96.3283 54.7033 96.6664 54.3121 96.8569C54.1184 96.9512 53.908 97.0065 53.6929 97.0195C53.4779 97.0326 53.2623 97.0031 53.0586 96.9328C52.8549 96.8625 52.6671 96.7528 52.5058 96.6099C52.3445 96.4671 52.2129 96.2938 52.1186 96.1001C51.6983 95.2359 51.0281 94.5178 50.1949 94.039C47.891 92.7089 44.9346 93.5011 43.6042 95.805C42.2739 98.1089 43.0664 101.065 45.3703 102.396C46.2222 102.888 47.084 103.048 47.9322 102.872C48.101 102.837 48.267 102.79 48.4289 102.731C48.8358 102.59 49.2818 102.615 49.6706 102.8C50.0594 102.985 50.3598 103.316 50.5071 103.72C50.6543 104.125 50.6366 104.571 50.4578 104.963C50.2789 105.355 49.9533 105.66 49.551 105.814C49.24 105.928 48.9211 106.018 48.5969 106.085C46.9607 106.424 45.2775 106.131 43.7299 105.237ZM28.3284 96.3452C28.1262 96.229 27.9512 96.0708 27.8151 95.8814C27.6791 95.692 27.5851 95.4757 27.5395 95.2469L25.9214 87.1863C25.8439 86.763 25.9358 86.3262 26.1773 85.9701C26.4187 85.6139 26.7905 85.3668 27.2124 85.2821C27.6343 85.1974 28.0726 85.2818 28.4328 85.5172C28.7931 85.7525 29.0465 86.12 29.1384 86.5404L30.7565 94.601C30.8185 94.9103 30.79 95.231 30.6745 95.5245C30.5589 95.8181 30.3612 96.0721 30.105 96.2562C29.8487 96.4403 29.5449 96.5465 29.2298 96.5623C28.9147 96.5781 28.6017 96.5027 28.3284 96.3452Z" fill="#FFDD40"/>
<path d="M22.2734 92.8511C21.8966 92.6335 21.6216 92.2752 21.509 91.8549C21.3964 91.4346 21.4554 90.9868 21.6729 90.61L28.1382 79.4118C28.2451 79.2237 28.3882 79.0586 28.5592 78.926C28.7302 78.7935 28.9257 78.696 29.1345 78.6393C29.3433 78.5827 29.5613 78.5678 29.7758 78.5957C29.9904 78.6236 30.1973 78.6937 30.3847 78.8018C30.5721 78.91 30.7362 79.0542 30.8676 79.2261C30.9991 79.398 31.0952 79.5941 31.1505 79.8033C31.2058 80.0125 31.2192 80.2305 31.1899 80.4449C31.1606 80.6593 31.0891 80.8657 30.9797 81.0524L24.5145 92.2506C24.2969 92.6274 23.9386 92.9024 23.5183 93.015C23.098 93.1276 22.6502 93.0686 22.2734 92.8511Z" fill="#FFDD40"/>
<path d="M25.3946 87.5007C25.0194 87.284 24.7451 86.9276 24.6317 86.5094C24.5183 86.0912 24.5749 85.6451 24.7893 85.2685C24.7893 85.2685 25.9998 83.1413 26.4688 82.3287C26.8525 81.6643 28.1389 79.4187 28.1389 79.4187C28.2463 79.2314 28.3895 79.0671 28.5605 78.9353C28.7314 78.8035 28.9267 78.7066 29.1352 78.6504C29.3436 78.5942 29.5611 78.5797 29.7751 78.6077C29.9892 78.6357 30.1956 78.7056 30.3826 78.8136L33.3582 80.5315C35.8372 81.9626 36.7323 85.0702 35.3535 87.4583C33.9746 89.8463 30.8361 90.6249 28.3571 89.1936C27.3707 88.6274 26.3832 88.0631 25.3946 87.5007ZM30.1672 82.4785C29.8821 82.9758 29.5964 83.4728 29.3103 83.9696C29.1095 84.3174 28.772 84.9078 28.4528 85.4672C29.0265 85.7949 29.6368 86.1441 29.9978 86.3525C30.8943 86.87 32.0457 86.6255 32.5119 85.8181C32.9781 85.0107 32.6143 83.8913 31.7176 83.3736L30.1672 82.4785ZM11.3593 86.5503C10.9825 86.3327 10.7076 85.9744 10.595 85.5541C10.4824 85.1338 10.5413 84.686 10.7589 84.3092L17.2241 73.111C17.331 72.9229 17.4741 72.7578 17.6451 72.6252C17.8161 72.4927 18.0117 72.3953 18.2205 72.3386C18.4293 72.2819 18.6472 72.267 18.8618 72.2949C19.0763 72.3228 19.2833 72.3929 19.4706 72.5011C19.658 72.6092 19.8222 72.7534 19.9536 72.9253C20.085 73.0972 20.1811 73.2933 20.2364 73.5025C20.2917 73.7117 20.3051 73.9298 20.2758 74.1441C20.2465 74.3585 20.1751 74.565 20.0657 74.7516L13.6004 85.9498C13.3829 86.3266 13.0245 86.6016 12.6042 86.7142C12.184 86.8268 11.7361 86.7678 11.3593 86.5503Z" fill="#FFDD40"/>
<path d="M14.1911 81.6988C13.8159 81.482 13.5417 81.1256 13.4283 80.7074C13.3149 80.2892 13.3715 79.8431 13.5857 79.4664C13.5857 79.4664 14.9001 77.1578 15.4094 76.2759C15.8258 75.5545 17.2234 73.116 17.2234 73.116C17.3307 72.9287 17.474 72.7643 17.645 72.6324C17.8159 72.5006 18.0113 72.4037 18.2197 72.3475C18.4282 72.2913 18.6457 72.2768 18.8598 72.3048C19.0739 72.3329 19.2803 72.4029 19.4673 72.5109L22.5852 74.3111C25.1453 75.7891 26.0415 79.0466 24.5833 81.5725C23.125 84.0984 19.8554 84.951 17.2956 83.4731C16.4329 82.975 14.2004 81.7047 14.2002 81.7045L14.1911 81.6988ZM19.2515 76.1751C18.9186 76.7558 18.5851 77.3362 18.2509 77.9163C18.0179 78.3196 17.616 79.023 17.2494 79.6652C17.8701 80.0193 18.5439 80.4046 18.9362 80.631C19.9126 81.1947 21.1972 80.8745 21.7417 79.9317C22.2859 78.989 21.921 77.7163 20.9446 77.1527L19.2515 76.1751ZM80.8794 31.4912C77.6437 29.623 75.7783 27.1907 75.7783 24.4961C75.7783 24.061 75.9511 23.6437 76.2588 23.336C76.5665 23.0283 76.9838 22.8555 77.4189 22.8555C78.3252 22.8559 79.0595 23.5902 79.0595 24.4961C79.0593 25.9319 80.3514 27.4422 82.6876 28.7406C85.3389 30.2155 89.103 31.2726 93.2861 31.7172C93.7188 31.7632 94.1155 31.9792 94.3889 32.3177C94.6624 32.6562 94.7901 33.0894 94.7441 33.5221C94.6981 33.9548 94.4821 34.3515 94.1436 34.6249C93.8052 34.8984 93.3719 35.0262 92.9392 34.9802C88.0145 34.4568 83.8637 33.2141 80.8794 31.4912ZM70.993 35.9596C69.0184 34.8196 66.8882 34.1934 64.757 34.0384L64.8257 34.1212C63.8643 35.533 62.9537 38.2382 65.3216 40.1622C65.8956 40.6286 66.2078 41.1918 66.2758 41.8834C66.4637 43.7966 64.6951 45.9534 64.6773 45.9749L64.5322 46.1498L64.5794 46.3717C64.596 46.4505 66.2055 54.2608 62.6805 55.8789L62.3685 56.0221L62.5105 57.1666C62.0753 57.5922 61.0827 58.7298 61.1467 60.2076C61.1936 61.2876 61.7875 62.2935 62.9115 63.2052C68.2246 63.4832 73.4997 60.8441 76.3422 55.9206C80.3769 48.9318 77.9823 39.9948 70.993 35.9596Z" fill="#FFDD40"/>
<path d="M56.3791 61.2682C58.6092 62.559 61.1422 63.2341 63.7188 63.2243C59.437 60.2812 63.004 57.3475 63.004 57.3475L62.8744 56.3039C66.7809 54.5104 65.0365 46.2733 65.0365 46.2733C65.0365 46.2733 68.4865 42.1296 65.6161 39.7971C62.7457 37.4648 65.419 34.102 65.419 34.102C59.7909 33.4321 54.0438 36.0876 51.0305 41.3069C46.9952 48.296 49.3901 57.2329 56.3791 61.2682Z" fill="#FFC839"/>
<path d="M58.3282 57.8951C57.9693 57.6878 57.7074 57.3464 57.6002 56.9461C57.4929 56.5458 57.549 56.1192 57.7561 55.7602L66.9115 39.9026C67.1219 39.55 67.4627 39.2944 67.86 39.191C68.2574 39.0876 68.6795 39.1447 69.0351 39.35C69.3908 39.5553 69.6513 39.8923 69.7605 40.2881C69.8696 40.684 69.8186 41.1069 69.6185 41.4654L60.4631 57.323C60.2558 57.6819 59.9145 57.9438 59.5141 58.0511C59.1138 58.1583 58.6872 58.1022 58.3282 57.8951Z" fill="#FFEA89"/>
<path d="M59.158 56.6161C57.6245 55.7309 56.8182 55.0383 55.9349 53.2901C55.7553 52.921 55.7281 52.4961 55.8592 52.1071C55.9903 51.7182 56.2691 51.3964 56.6354 51.2113C57.0018 51.0261 57.4262 50.9925 57.8171 51.1177C58.208 51.2429 58.534 51.5168 58.7246 51.8803C59.3042 53.0274 59.6249 53.2882 60.8556 53.9862C62.0659 54.6741 63.2842 54.1793 63.9041 53.4286C64.2027 53.067 64.7891 52.1121 63.8656 50.9895L61.2566 48.4085C61.2257 48.3779 61.1961 48.3461 61.1677 48.3132C59.4997 46.3625 59.4554 43.748 61.0571 41.8076C62.5276 40.0266 65.4052 39.0134 68.0605 40.5228C69.6927 41.4509 70.524 42.131 71.4362 43.9362C71.6158 44.3053 71.6429 44.7302 71.5119 45.1192C71.3808 45.5081 71.102 45.8299 70.7356 46.0151C70.3693 46.2002 69.9448 46.2338 69.5539 46.1086C69.163 45.9834 68.8371 45.7095 68.6464 45.346C68.067 44.1992 67.7504 43.9409 66.5155 43.2401C65.3054 42.552 64.0871 43.0468 63.4672 43.7977C63.1686 44.1593 62.5822 45.1142 63.5054 46.2368L66.1145 48.8178C66.1454 48.8482 66.175 48.88 66.2033 48.9132C67.8713 50.8639 67.9156 53.4783 66.3139 55.4185C64.8437 57.1997 61.9656 58.2129 59.3103 56.7036L59.158 56.6161Z" fill="#FFF6D2"/>
<path d="M55.5608 62.6888C47.7994 58.2078 45.1309 48.2477 49.6119 40.4864C51.201 37.7296 53.5649 35.5002 56.41 34.0752C59.2552 32.6502 62.4562 32.0923 65.6157 32.4708C66.0478 32.5223 66.4417 32.7433 66.7108 33.0852C66.98 33.4271 67.1022 33.8619 67.0508 34.294C66.9993 34.7261 66.7783 35.12 66.4364 35.3891C66.0945 35.6583 65.6596 35.7805 65.2276 35.7291C62.7057 35.4271 60.1507 35.8725 57.8798 37.0099C55.6088 38.1473 53.722 39.9267 52.4534 42.127C48.8771 48.3216 51.0069 56.2709 57.2014 59.8472C59.1859 60.9931 61.4387 61.5947 63.7156 61.5874C64.1507 61.5861 64.5685 61.7576 64.8771 62.0642C65.1858 62.3709 65.36 62.7876 65.3614 63.2227C65.3628 63.6578 65.1913 64.0756 64.8846 64.3842C64.5779 64.6928 64.1613 64.867 63.7262 64.8685C60.8705 64.8778 58.0468 64.1241 55.5608 62.6888Z" fill="#FF8F33"/>
<path d="M62.9004 64.6517C62.5876 64.4716 62.3428 64.1934 62.2041 63.8602C62.0654 63.527 62.0405 63.1573 62.1331 62.8084C62.2258 62.4596 62.431 62.151 62.7168 61.9306C63.0027 61.7101 63.3532 61.5901 63.7142 61.5891C68.3241 61.5739 72.6181 59.0879 74.9201 55.1007C78.4964 48.9061 76.3664 40.9568 70.1719 37.3805C68.6356 36.4934 66.9715 35.9384 65.2261 35.7307C64.794 35.6793 64.4001 35.4583 64.131 35.1164C63.8618 34.7744 63.7396 34.3396 63.791 33.9075C63.8425 33.4755 64.0635 33.0815 64.4054 32.8124C64.7473 32.5433 65.1822 32.421 65.6142 32.4725C67.8038 32.7331 69.8892 33.4285 71.8128 34.5389C79.5741 39.02 82.2429 48.98 77.7619 56.7415C74.8779 61.7368 69.4992 64.8516 63.7249 64.8706C63.4355 64.8721 63.151 64.7965 62.9004 64.6517Z" fill="#FFC839"/>
<path d="M111.543 32.3514C111.281 32.2 111.066 31.979 110.922 31.713C110.778 31.4471 110.71 31.1464 110.726 30.8443C110.742 30.5422 110.841 30.2504 111.013 30.0011C111.184 29.7519 111.421 29.5549 111.698 29.432C114.889 28.0131 116.719 26.2136 116.719 24.4952C116.72 21.8292 111.945 18.4167 103.097 17.3427C102.666 17.2888 102.274 17.0664 102.007 16.7243C101.74 16.3821 101.62 15.9481 101.672 15.5173C101.724 15.0864 101.945 14.6938 102.286 14.4255C102.627 14.1571 103.061 14.0348 103.492 14.0854C113.367 15.284 120.001 19.4674 120.001 24.4952C120.001 27.614 117.526 30.4319 113.031 32.4302C112.795 32.5355 112.536 32.5832 112.278 32.5695C112.019 32.5559 111.767 32.4811 111.543 32.3514Z" fill="#FFDD40"/>
<path d="M92.2948 34.7687C91.9687 34.581 91.717 34.2868 91.5819 33.9355C91.4469 33.5843 91.4367 33.1972 91.5531 32.8394C91.6695 32.4815 91.9054 32.1745 92.2212 31.9699C92.5371 31.7653 92.9137 31.6754 93.2879 31.7155C94.8168 31.8765 96.3532 31.9565 97.8905 31.9553C103.134 31.9555 108.038 31.0588 111.699 29.431C112.527 29.0628 113.496 29.4355 113.865 30.2635C114.233 31.0916 113.86 32.0612 113.032 32.4292C108.96 34.2397 103.583 35.2365 97.8908 35.2365C96.2187 35.2367 94.5535 35.1498 92.9412 34.9785C92.7135 34.9544 92.4933 34.883 92.2948 34.7687Z" fill="#FFEA89"/>
<path d="M0.015625 56.205C0.713244 56.0749 1.4019 55.9007 2.07742 55.6833C6.34024 54.3143 9.89524 51.327 12.1171 47.4401C15.2842 41.8997 21.7077 30.5705 26.1473 22.1262C28.7268 17.2195 28.6846 12.2918 27.7771 8.23828C11.4559 18.0966 0.439844 35.8484 0.015625 56.205Z" fill="#3C58A0"/>
</svg>
