<svg width="120" height="120" viewBox="0 0 120 120" fill="none" xmlns="http://www.w3.org/2000/svg">
<path d="M21.6641 106.157L27.5658 104.316L27.7932 110.632L22.5212 111.611L21.6641 106.157Z" fill="#0055A3"/>
<path d="M82.1702 4.22952C75.3117 1.5007 67.8309 0 59.9998 0C54.8693 0 49.8891 0.644295 45.136 1.85578L11.996 23.9999C4.46366 34.0279 0 46.4926 0 59.9998C0 60.8037 0.0157812 61.6037 0.0473436 62.3998L14.1768 98.7344C25.1828 111.741 41.627 120 59.9998 120C91.6075 120 117.507 95.5588 119.83 64.5453L82.1702 4.22952Z" fill="#26A6FE"/>
<path d="M82.2413 4.34359L82.1689 4.22758C82.066 4.18664 81.9628 4.14594 81.8595 4.10547C81.987 4.18437 82.1143 4.26375 82.2413 4.34359ZM99.8862 51.7418L88.8465 33.3422L95.9239 27.2084C97.2368 26.0705 98.2887 24.6627 99.0076 23.081C99.7266 21.4993 100.096 19.7811 100.09 18.0437C100.08 15.2472 97.7925 12.9915 94.9958 12.9915C93.2654 12.9914 91.5552 13.3633 89.9811 14.082C88.407 14.8008 87.0059 15.8496 85.8727 17.1573L79.7389 24.2347L61.3394 13.195C60.6468 12.7793 59.8352 12.6071 59.0335 12.7058C58.2318 12.8045 57.4862 13.1684 56.9151 13.7397L54.5784 16.0764C54.4573 16.1974 54.3634 16.3428 54.3028 16.5029C54.2422 16.663 54.2164 16.8342 54.227 17.005C54.2377 17.1759 54.2845 17.3425 54.3645 17.4939C54.4445 17.6452 54.5557 17.7779 54.6909 17.8829L72.9416 32.0778L64.2878 42.0628C64.1694 42.1995 64.0218 42.3079 63.8558 42.3798C63.6899 42.4518 63.5099 42.4856 63.3292 42.4786L55.5389 42.1796C55.3726 42.1732 55.2069 42.2012 55.052 42.2619C54.8971 42.3226 54.7565 42.4147 54.6389 42.5323L50.8928 46.2783C50.3102 46.861 50.4696 47.8432 51.2067 48.2117L59.9552 52.586C60.1889 52.7028 60.3783 52.8923 60.4952 53.126L64.8695 61.8745C65.238 62.6116 66.2202 62.771 66.8029 62.1883L70.5489 58.4423C70.6665 58.3247 70.7586 58.184 70.8193 58.0292C70.88 57.8743 70.908 57.7085 70.9016 57.5423L70.6025 49.752C70.5956 49.5712 70.6294 49.3913 70.7013 49.2253C70.7733 49.0594 70.8816 48.9118 71.0183 48.7934L81.0034 40.1396L95.1983 58.3901C95.3033 58.5252 95.4359 58.6365 95.5873 58.7164C95.7387 58.7964 95.9053 58.8433 96.0761 58.8539C96.247 58.8645 96.4182 58.8387 96.5783 58.7781C96.7384 58.7176 96.8838 58.6236 97.0048 58.5026L99.3415 56.1658C99.9127 55.5948 100.277 54.8492 100.375 54.0476C100.474 53.2459 100.302 52.4343 99.8862 51.7418Z" fill="#0593FC"/>
<path d="M66.8171 40.9648L12.9961 95.7036L14.175 98.7355C15.153 99.8911 16.174 101.01 17.2359 102.088L72.1189 46.2694L66.8171 40.9648Z" fill="#0593FC"/>
<path d="M75.0774 9.60092H68.184C67.5379 9.60092 66.9006 9.75139 66.3226 10.0404L59.9024 13.2506C59.2111 13.5963 58.6296 14.1277 58.2232 14.7852C57.8169 15.4427 57.6016 16.2004 57.6016 16.9734V23.2321C57.6017 24.8537 58.112 26.4341 59.0602 27.7496C60.0083 29.0651 61.3463 30.049 62.8846 30.5619L70.3658 33.0557C71.4131 33.4047 72.5561 33.3234 73.5435 32.8298L80.0593 29.5717C81.0466 29.078 82.1897 28.9968 83.2369 29.3458L94.3657 33.0555C95.413 33.4046 96.2786 34.1554 96.7723 35.1428L99.6509 40.9C99.9966 41.5913 100.528 42.1727 101.185 42.5791C101.843 42.9855 102.601 43.2008 103.374 43.2008C104.059 43.2008 104.733 43.37 105.338 43.6933C105.942 44.0167 106.457 44.4841 106.837 45.0542L119.831 64.546C119.944 63.0457 120.001 61.5298 120.001 60.0008C120.001 34.6949 104.335 13.0486 82.1719 4.23047L78.0205 8.38194C77.2399 9.16242 76.1813 9.60089 75.0774 9.60092Z" fill="#46CC8D"/>
<path d="M94.9956 12.9934C93.2652 12.9932 91.555 13.3651 89.9809 14.0839C88.4069 14.8026 87.0057 15.8514 85.8726 17.1591L79.7388 24.2365L61.3392 13.1968C61.1205 13.0654 60.8885 12.9575 60.6471 12.875L59.8985 13.2493C59.2072 13.595 58.6257 14.1264 58.2193 14.7839C57.813 15.4414 57.5977 16.1991 57.5977 16.9721V20.146L72.941 32.0799L71.917 33.2613C72.4816 33.2286 73.0336 33.0814 73.5396 32.8287L80.0554 29.5709C81.0427 29.0772 82.1858 28.9959 83.233 29.3449L90.6193 31.807L95.9232 27.2103C97.2362 26.0724 98.288 24.6645 99.007 23.0828C99.7259 21.5012 100.095 19.7829 100.089 18.0455C100.08 15.249 97.7921 12.9934 94.9956 12.9934Z" fill="#00C27A"/>
<path d="M30.9351 19.7288L32.9085 15.782C33.3571 14.8848 34.0846 14.1573 34.9818 13.7087L41.2925 10.5533C41.8907 10.2544 42.4171 9.82948 42.8356 9.30783C43.254 8.78618 43.5546 8.18012 43.7167 7.53131L45.1356 1.85547C31.7024 5.27921 20.0809 13.2355 11.9955 23.9998H24.0243C25.4592 23.9998 26.8657 23.6002 28.0862 22.8458C29.3068 22.0915 30.2933 21.0122 30.9351 19.7288ZM19.1995 89.9394V79.3722C19.1995 77.7955 18.3088 76.3544 16.8986 75.6494L10.8405 72.6203C10.0349 72.2177 9.38174 71.5645 8.97911 70.7589L5.95006 64.7008C5.60435 64.0095 5.07297 63.428 4.41545 63.0216C3.75792 62.6153 3.00023 62.4 2.22726 62.4H0.046875C0.590858 76.2266 5.81365 88.8512 14.1764 98.7343L18.5006 92.2482C18.9562 91.5644 19.1994 90.7611 19.1995 89.9394ZM96.637 57.5997H94.1992C93.3256 57.5997 92.4742 57.3249 91.7655 56.8141C91.0568 56.3033 90.5268 55.5825 90.2505 54.7537L88.1601 48.4828C87.6472 46.9445 86.6633 45.6065 85.3478 44.6584C84.0323 43.7102 82.4519 43.1999 80.8303 43.1998H58.5818C57.9357 43.1998 57.2984 43.0493 56.7204 42.7603L50.6825 39.7414C49.9011 39.3507 49.0166 39.2158 48.1543 39.3557C47.292 39.4957 46.4956 39.9034 45.8778 40.5211L34.8182 51.5808C34.0376 52.3613 33.599 53.4199 33.599 54.5238V64.2733C33.599 68.5406 37.0581 71.9997 41.3253 71.9997H54.5989C55.4725 71.9997 56.3239 72.2746 57.0326 72.7854C57.7413 73.2961 58.2713 74.0169 58.5476 74.8457L62.1853 85.7589C62.3269 86.1833 62.3989 86.6277 62.3989 87.0751V95.3241C62.3989 95.7716 62.471 96.2159 62.6124 96.6404L65.681 105.847C66.4821 108.25 69.2255 109.386 71.4912 108.253L76.1946 105.901C76.5946 105.701 76.9598 105.438 77.2762 105.122L89.9795 92.4184C90.76 91.6378 91.1985 90.5792 91.1985 89.4753V82.8597C91.1985 82.0379 91.4418 81.2345 91.8977 80.5508L100.1 68.2481C100.555 67.5643 100.799 66.761 100.799 65.9392V61.7618C100.799 59.4632 98.9357 57.5997 96.637 57.5997Z" fill="#46CC8D"/>
<path d="M58.5808 43.1987C57.9346 43.1987 57.2974 43.0482 56.7194 42.7593L55.5639 42.1815L55.5389 42.1806C55.3726 42.1742 55.2069 42.2022 55.052 42.2629C54.8971 42.3236 54.7565 42.4157 54.6389 42.5333L50.8928 46.2793C50.3102 46.862 50.4696 47.8442 51.2067 48.2127L59.9552 52.587C60.1889 52.7038 60.3783 52.8933 60.4952 53.127L64.8695 61.8755C65.238 62.6126 66.2202 62.772 66.8029 62.1893L70.5489 58.4433C70.6665 58.3257 70.7586 58.1851 70.8193 58.0302C70.88 57.8753 70.908 57.7096 70.9016 57.5433L70.6025 49.753C70.5956 49.5723 70.6294 49.3923 70.7013 49.2264C70.7733 49.0604 70.8816 48.9128 71.0183 48.7944L77.4749 43.1987H58.5808ZM83.8648 43.8196L88.6604 49.9852L88.1593 48.4817C87.8138 47.4452 87.2524 46.4937 86.5121 45.69C85.7719 44.8864 84.8696 44.2489 83.8648 43.8196ZM95.1983 58.3911C95.3033 58.5262 95.4359 58.6375 95.5873 58.7174C95.7386 58.7974 95.9053 58.8443 96.0761 58.8549C96.247 58.8656 96.4182 58.8397 96.5783 58.7792C96.7384 58.7186 96.8838 58.6246 97.0048 58.5036L97.7569 57.7515C97.3919 57.6499 97.0148 57.5984 96.6359 57.5987H94.5818L95.1983 58.3911Z" fill="#00C27A"/>
<path d="M37.3711 70.9119C38.5664 71.6256 39.933 72.0014 41.3252 71.9991H46.8199L72.1199 46.2676L69.0526 43.1992H64.619L37.3711 70.9119Z" fill="#00C27A"/>
<path d="M110.01 48.8164C110.232 50.9274 110.343 53.0486 110.342 55.1712C110.342 88.3178 83.4693 115.171 50.3424 115.171C42.6285 115.171 35.2548 113.715 28.4805 111.064C37.6405 116.73 48.4386 120 60.0005 120C91.6082 120 117.508 95.5593 119.831 64.5457L110.01 48.8164Z" fill="#0593FC"/>
<path d="M82.1723 4.23047L82.1289 4.27383C97.6932 14.014 108.47 30.6951 110.122 49.9817L119.832 64.5462C119.944 63.0457 120.002 61.5298 120.002 60.0008C120.002 34.6949 104.335 13.0486 82.1723 4.23047Z" fill="#00C27A"/>
<path d="M16.9439 110.881C14.7839 113.042 11.2812 113.042 9.12096 110.882C6.96074 108.721 6.96074 105.219 9.12096 103.059L69.7065 41.4402L64.4042 36.1356L3.81637 97.7566C-1.27212 102.845 -1.27212 111.095 3.81637 116.184C8.90487 121.272 17.1551 121.272 22.2436 116.184L27.7943 110.633C25.6591 109.272 23.6119 107.777 21.6649 106.159L16.9439 110.881ZM53.5042 91.0383C53.2733 91.0386 53.0446 90.9933 52.8313 90.9049C52.618 90.8166 52.4243 90.6869 52.2613 90.5233C51.9317 90.1937 51.7465 89.7466 51.7465 89.2804C51.7465 88.8143 51.9317 88.3672 52.2613 88.0376L92.8619 47.4369C93.1916 47.1073 93.6387 46.9221 94.1048 46.9221C94.571 46.9221 95.0181 47.1073 95.3477 47.4369C95.6773 47.7666 95.8625 48.2136 95.8625 48.6798C95.8625 49.146 95.6773 49.593 95.3477 49.9227L54.7471 90.5233C54.5841 90.6869 54.3904 90.8166 54.177 90.9049C53.9637 90.9933 53.7351 91.0386 53.5042 91.0383ZM54.6859 79.2499C54.455 79.2503 54.2263 79.205 54.013 79.1166C53.7997 79.0283 53.606 78.8986 53.443 78.735C53.1134 78.4054 52.9282 77.9583 52.9282 77.4921C52.9282 77.026 53.1134 76.5789 53.443 76.2492L87.1099 42.5823C87.4396 42.2527 87.8866 42.0675 88.3528 42.0675C88.819 42.0675 89.266 42.2527 89.5957 42.5823C89.9253 42.912 90.1105 43.359 90.1105 43.8252C90.1105 44.2914 89.9253 44.7385 89.5957 45.0681L55.9288 78.735C55.7658 78.8986 55.5721 79.0283 55.3588 79.1166C55.1455 79.205 54.9168 79.2503 54.6859 79.2499ZM41.6153 39.6236C41.3844 39.624 41.1557 39.5786 40.9424 39.4903C40.7291 39.4019 40.5354 39.2722 40.3724 39.1087C40.0428 38.779 39.8576 38.3319 39.8576 37.8658C39.8576 37.3996 40.0428 36.9525 40.3724 36.6229L61.8805 15.1148C62.2101 14.7852 62.6572 14.6001 63.1234 14.6001C63.5895 14.6001 64.0366 14.7852 64.3662 15.1148C64.6959 15.4445 64.881 15.8916 64.881 16.3577C64.881 16.8239 64.6959 17.271 64.3662 17.6006L42.8582 39.1087C42.6951 39.2721 42.5014 39.4017 42.2881 39.4901C42.0748 39.5785 41.8462 39.6238 41.6153 39.6236ZM15.6874 54.9449C15.4565 54.9452 15.2279 54.8999 15.0146 54.8116C14.8012 54.7232 14.6075 54.5935 14.4445 54.4299C14.1149 54.1003 13.9298 53.6532 13.9298 53.1871C13.9298 52.7209 14.1149 52.2738 14.4445 51.9442L55.944 10.4445C56.2737 10.1149 56.7207 9.92969 57.1869 9.92969C57.6531 9.92969 58.1001 10.1149 58.4298 10.4445C58.7594 10.7741 58.9446 11.2212 58.9446 11.6874C58.9446 12.1535 58.7594 12.6006 58.4298 12.9302L16.9303 54.4299C16.7673 54.5934 16.5735 54.723 16.3602 54.8114C16.1469 54.8997 15.9183 54.9451 15.6874 54.9449Z" fill="#0055A3"/>
<path d="M54.5012 8.91252L52.1361 11.2776C52.0187 11.3951 51.9275 11.5362 51.8687 11.6916C51.81 11.8471 51.7849 12.0132 51.7952 12.179C51.8056 12.3449 51.851 12.5066 51.9286 12.6535C52.0062 12.8004 52.1142 12.9292 52.2454 13.0312L75.0624 30.7778L83.0173 22.8229L58.9255 8.36784C58.2329 7.95218 57.4213 7.78001 56.6196 7.8787C55.8179 7.9774 55.0723 8.34129 54.5012 8.91252ZM97.4721 46.9144L83.0173 22.8229L75.0624 30.7778L92.809 53.5948C92.911 53.7259 93.0397 53.8339 93.1866 53.9115C93.3336 53.9891 93.4953 54.0346 93.6611 54.0449C93.827 54.0552 93.9931 54.0302 94.1485 53.9714C94.3039 53.9126 94.4451 53.8215 94.5626 53.704L96.9276 51.3389C97.4989 50.7678 97.8628 50.0221 97.9614 49.2204C98.0601 48.4187 97.8878 47.607 97.4721 46.9144Z" fill="#C0D6F2"/>
<path d="M92.5826 8.16406C90.8522 8.16391 89.142 8.53582 87.5679 9.25457C85.9939 9.97332 84.5927 11.0221 83.4595 12.3298L62.2318 36.8233C62.0018 37.0887 61.7152 37.2989 61.393 37.4386C61.0709 37.5783 60.7215 37.6438 60.3706 37.6303L53.1102 37.3516C52.9489 37.3454 52.788 37.3727 52.6377 37.4316C52.4874 37.4905 52.3508 37.5799 52.2367 37.694L48.445 41.4858C47.8794 42.0513 48.0341 43.0047 48.7494 43.3626L57.2031 47.5893C57.6566 47.8161 58.0244 48.1839 58.2512 48.6374L62.4779 57.0911C62.8356 57.8064 63.789 57.9613 64.3548 57.3955L68.1465 53.6038C68.2606 53.4897 68.35 53.3532 68.4089 53.2028C68.4678 53.0525 68.4951 52.8917 68.4889 52.7303L68.2102 45.4699C68.1967 45.119 68.2622 44.7696 68.4019 44.4475C68.5416 44.1253 68.7518 43.8387 69.0172 43.6087L93.5107 22.381C94.8237 21.2432 95.8757 19.8353 96.5946 18.2536C97.3136 16.6719 97.6826 14.9537 97.6765 13.2162C97.6668 10.4197 95.3791 8.16406 92.5826 8.16406Z" fill="#D3E1F5"/>
</svg>
